<svg width="375" height="305" viewBox="0 0 375 305" fill="none" xmlns="http://www.w3.org/2000/svg">
<path d="M380 -1H0V254H380V-1Z" fill="#242A4E"/>
<g opacity="0.5">
<path d="M-83 186.923C-38.6473 159.848 46.0535 130.587 106.956 144.647C183.084 162.223 322.1 229.199 396.903 186.923C421.656 172.934 433.288 165.77 438.091 162.626C440.751 160.409 443.025 159.396 438.091 162.626C437.08 163.468 436.014 164.483 435.266 165.506V281.714C396.43 309.74 320.237 310.823 249.273 293.722C160.567 272.347 -25.4094 279.947 -69.1001 293.722C-104.053 304.743 -47.0324 186.923 -83 186.923Z" fill="url(#paint0_linear_1332_2507)" style="mix-blend-mode:screen"/>
</g>
<g opacity="0.26">
<path d="M-94.5934 121.344C-49.4894 99.7015 33.8588 80.6435 89.4298 101.768C158.894 128.174 281.409 211.006 357.059 177.867C382.092 166.902 393.929 161.163 398.839 158.609C401.618 156.723 403.884 155.985 398.839 158.609C397.784 159.325 396.654 160.208 395.823 161.134L381.392 276.443C341.362 299.678 269.52 291.778 204.857 266.452C124.028 234.794 -51.9448 220.431 -94.7741 228.953C-129.038 235.771 -60.7431 125.58 -94.5934 121.344Z" fill="url(#paint1_linear_1332_2507)" style="mix-blend-mode:screen"/>
</g>
<path d="M50.4671 125.731L51.5386 127.932L53.935 128.285L52.2011 130L52.6101 132.419L50.4671 131.276L48.3241 132.419L48.7331 130L47 128.285L49.3956 127.932L50.4671 125.731Z" fill="white"/>
<path d="M317.5 52.7256L318.581 55.0617L321 55.4362L319.25 57.2549L319.663 59.8233L317.5 58.6106L315.337 59.8233L315.75 57.2549L314 55.4362L316.419 55.0617L317.5 52.7256Z" fill="#29476F"/>
<path d="M375 133H274V198H375V133Z" fill="#2E3971"/>
<path opacity="0.1" d="M377 133H274V137H377V133Z" fill="#282725"/>
<path d="M377 197H250V203H377V197Z" fill="#28999B"/>
<path d="M289.5 92L290.89 94.6335L294 95.0554L291.75 97.1054L292.281 100L289.5 98.633L286.719 100L287.25 97.1054L285 95.0554L288.11 94.6335L289.5 92Z" fill="#29476F"/>
<path opacity="0.1" d="M282 131H264V132H282V131Z" fill="#282725"/>
<path d="M353.482 141H300.518C300.518 141 292.095 132.293 298.25 119.15C304.405 106.007 324.651 104.53 327.001 95C329.35 104.53 349.596 106.007 355.751 119.15C361.904 132.293 353.482 141 353.482 141Z" fill="#2E3971"/>
<path d="M368 139H281V145H368V139Z" fill="#28999B"/>
<path d="M268.707 87.1074H253.805V196.907H268.707V87.1074Z" fill="#2E3971"/>
<path d="M268.471 86.1003H254.043C254.043 86.1003 251.749 83.6215 253.425 79.8799C255.102 76.1383 260.617 75.718 261.257 73.0049C261.897 75.7173 267.412 76.1383 269.089 79.8799C270.765 83.6215 268.471 86.1003 268.471 86.1003Z" fill="#28999B"/>
<path d="M269.701 86.1001H252.812V88.1148H269.701V86.1001Z" fill="#095A91"/>
<path d="M269.701 117.328H252.812V120.35H269.701V117.328Z" fill="#28999B"/>
<path d="M259.768 125.386H257.781V154.599H259.768V125.386Z" fill="#28999B"/>
<path d="M264.737 125.386H262.75V154.599H264.737V125.386Z" fill="#28999B"/>
<path d="M269.701 157.621H252.812V160.643H269.701V157.621Z" fill="#28999B"/>
<path d="M293 153C288.581 153 285 155.85 285 159.366V191H301V159.366C301 155.85 297.418 153 293 153Z" fill="#28999B"/>
<path d="M321 153C316.029 153 312 155.85 312 159.366V191H330V159.366C330.001 155.85 325.971 153 321 153Z" fill="#28999B"/>
<path d="M347 153C342.029 153 338 155.85 338 159.366V191H356V159.366C355.999 155.85 351.97 153 347 153Z" fill="#28999B"/>
<path d="M329.099 76.791C324.92 76.7911 321.533 80.1782 321.533 84.3564C321.533 88.5349 324.92 91.9228 329.099 91.9229C331.223 91.9229 333.141 91.0464 334.516 89.6367C333.848 89.8552 333.135 89.9756 332.395 89.9756C328.63 89.9754 325.578 86.9229 325.578 83.1582C325.578 80.2886 327.352 77.8345 329.862 76.8291C329.611 76.8039 329.356 76.791 329.099 76.791Z" fill="#278B91"/>
<path d="M264 106L265.545 109.291L269 109.819L266.5 112.381L267.09 116L264 114.291L260.91 116L261.5 112.381L259 109.819L262.455 109.291L264 106Z" fill="#29476F"/>
<path d="M352.5 83L353.582 84.9747L356 85.2917L354.25 86.8288L354.663 89L352.5 87.975L350.337 89L350.75 86.8288L349 85.2917L351.418 84.9747L352.5 83Z" fill="white"/>
<path d="M266.487 54.7539L267.255 56.3324L268.974 56.5861L267.731 57.8148L268.025 59.5502L266.487 58.7313L264.95 59.5502L265.244 57.8148L264 56.5861L265.719 56.3324L266.487 54.7539Z" fill="white"/>
<path d="M247.039 88.2144L247.669 89.509L249.078 89.7164L248.059 90.7239L248.299 92.147L247.039 91.4753L245.779 92.147L246.019 90.7239L245 89.7164L246.409 89.509L247.039 88.2144Z" fill="white"/>
<path d="M351.5 49.6841L352.89 52.6881L356 53.17L353.75 55.5083L354.281 58.8097L351.5 57.2509L348.719 58.8097L349.25 55.5083L347 53.17L350.109 52.6881L351.5 49.6841Z" fill="#29476F"/>
<defs>
<linearGradient id="paint0_linear_1332_2507" x1="178.414" y1="142.227" x2="178.414" y2="253.013" gradientUnits="userSpaceOnUse">
<stop stop-color="#250A4A" stop-opacity="0.77"/>
<stop offset="0.668269" stop-color="#22B4BE" stop-opacity="0"/>
</linearGradient>
<linearGradient id="paint1_linear_1332_2507" x1="156.982" y1="107.784" x2="143.225" y2="217.712" gradientUnits="userSpaceOnUse">
<stop stop-color="#250A4A"/>
<stop offset="0.855769" stop-color="#22B4BE" stop-opacity="0"/>
</linearGradient>
</defs>
</svg>
