<svg width="185" height="203" viewBox="0 0 185 203" fill="none" xmlns="http://www.w3.org/2000/svg">
<g clip-path="url(#clip0_1420_75)">
<g filter="url(#filter0_d_1420_75)">
<path d="M178 0H7C3.13401 0 0 3.13401 0 7V196C0 199.866 3.13401 203 7 203H178C181.866 203 185 199.866 185 196V7C185 3.13401 181.866 0 178 0Z" fill="url(#paint0_linear_1420_75)"/>
</g>
<path d="M22.4169 39L19.3569 26.59H22.2299L24.6269 37.13L24.0319 36.739H25.5789L24.9159 37.13L26.7689 27.049H29.0809L26.6499 39H22.4169ZM29.8119 39L27.1939 27.049H29.6249L31.7669 37.13L31.1209 36.739H32.5999L32.0389 37.13L34.1299 26.59H36.8499L34.1299 39H29.8119ZM38.5378 39V26.59H41.2578V33.747H40.8498C40.8498 32.8063 40.9688 32.013 41.2068 31.367C41.4448 30.721 41.7961 30.2337 42.2608 29.905C42.7255 29.565 43.3091 29.395 44.0118 29.395H44.1308C45.1621 29.395 45.9498 29.7633 46.4938 30.5C47.0378 31.2253 47.3098 32.2907 47.3098 33.696V39H44.5898V33.526C44.5898 33.016 44.4368 32.608 44.1308 32.302C43.8361 31.9847 43.4451 31.826 42.9578 31.826C42.4478 31.826 42.0341 31.9903 41.7168 32.319C41.4108 32.6477 41.2578 33.084 41.2578 33.628V39H38.5378ZM53.9797 39.323C53.1863 39.323 52.4837 39.187 51.8717 38.915C51.271 38.643 50.7667 38.2803 50.3587 37.827C49.962 37.3623 49.656 36.8467 49.4407 36.28C49.2367 35.702 49.1347 35.1127 49.1347 34.512V34.172C49.1347 33.5487 49.2367 32.9537 49.4407 32.387C49.656 31.809 49.962 31.2933 50.3587 30.84C50.7553 30.3867 51.2483 30.0297 51.8377 29.769C52.4383 29.497 53.1183 29.361 53.8777 29.361C54.875 29.361 55.7137 29.5877 56.3937 30.041C57.085 30.483 57.612 31.0667 57.9747 31.792C58.3373 32.506 58.5187 33.288 58.5187 34.138V35.056H50.2737V33.509H56.8697L55.9857 34.223C55.9857 33.6677 55.9063 33.1917 55.7477 32.795C55.589 32.3983 55.351 32.098 55.0337 31.894C54.7277 31.6787 54.3423 31.571 53.8777 31.571C53.4017 31.571 52.9993 31.6787 52.6707 31.894C52.342 32.1093 52.0927 32.4267 51.9227 32.846C51.7527 33.254 51.6677 33.7583 51.6677 34.359C51.6677 34.9143 51.747 35.4017 51.9057 35.821C52.0643 36.229 52.3137 36.5463 52.6537 36.773C52.9937 36.9997 53.4357 37.113 53.9797 37.113C54.4783 37.113 54.8863 37.0167 55.2037 36.824C55.521 36.6313 55.7363 36.3933 55.8497 36.11H58.3487C58.2127 36.7333 57.9463 37.2887 57.5497 37.776C57.153 38.2633 56.6543 38.643 56.0537 38.915C55.453 39.187 54.7617 39.323 53.9797 39.323ZM60.4061 39V29.684H62.5651V33.679H62.4121C62.4121 32.727 62.5311 31.9337 62.7691 31.299C63.0184 30.6643 63.3924 30.1883 63.8911 29.871C64.3897 29.5537 64.9961 29.395 65.7101 29.395H65.8291C66.9171 29.395 67.7444 29.752 68.3111 30.466C68.8891 31.1687 69.1781 32.2397 69.1781 33.679V39H66.4581V33.526C66.4581 33.0273 66.3107 32.6193 66.0161 32.302C65.7214 31.9847 65.3247 31.826 64.8261 31.826C64.3161 31.826 63.9024 31.9903 63.5851 32.319C63.2791 32.6363 63.1261 33.0557 63.1261 33.577V39H60.4061ZM75.1332 42.689V40.377H77.0712C77.3659 40.377 77.6152 40.3373 77.8192 40.258C78.0232 40.19 78.1876 40.071 78.3122 39.901C78.4369 39.731 78.5389 39.4987 78.6182 39.204L80.9132 29.684H83.4972L80.8962 39.748C80.7149 40.4733 80.4599 41.0513 80.1312 41.482C79.8139 41.9127 79.3832 42.2187 78.8392 42.4C78.3066 42.5927 77.6266 42.689 76.7992 42.689H75.1332ZM78.0572 38.796V36.671H80.0292V38.796H78.0572ZM76.9352 38.796L74.0792 29.684H76.8162L79.5192 38.796H76.9352ZM89.3387 39.323C88.5227 39.323 87.7974 39.1983 87.1627 38.949C86.5281 38.6883 85.9897 38.337 85.5477 37.895C85.1171 37.453 84.7884 36.9487 84.5617 36.382C84.3351 35.804 84.2217 35.1977 84.2217 34.563V34.172C84.2217 33.526 84.3351 32.914 84.5617 32.336C84.7997 31.7467 85.1397 31.231 85.5817 30.789C86.0351 30.347 86.5791 30.0013 87.2137 29.752C87.8484 29.4913 88.5567 29.361 89.3387 29.361C90.1434 29.361 90.8574 29.4913 91.4807 29.752C92.1149 30.0013 92.6539 30.347 93.0959 30.789C93.5379 31.231 93.8779 31.7467 94.1159 32.336C94.3539 32.914 94.4729 33.526 94.4729 34.172V34.563C94.4729 35.1977 94.3589 35.804 94.1329 36.382C93.9059 36.9487 93.5719 37.453 93.1299 37.895C92.6989 38.337 92.1659 38.6883 91.5317 38.949C90.8971 39.1983 90.1661 39.323 89.3387 39.323ZM89.3387 37.028C89.8714 37.028 90.3134 36.9147 90.6647 36.688C91.0161 36.4613 91.2824 36.144 91.4637 35.736C91.6564 35.328 91.7527 34.8747 91.7527 34.376C91.7527 33.8433 91.6564 33.3787 91.4637 32.982C91.2711 32.574 90.9934 32.251 90.6307 32.013C90.2794 31.775 89.8487 31.656 89.3387 31.656C88.8401 31.656 88.4094 31.775 88.0467 32.013C87.6841 32.251 87.4064 32.574 87.2137 32.982C87.0324 33.3787 86.9417 33.8433 86.9417 34.376C86.9417 34.8747 87.0324 35.328 87.2137 35.736C87.3951 36.144 87.6671 36.4613 88.0297 36.688C88.3924 36.9147 88.8287 37.028 89.3387 37.028ZM99.6009 39.289C98.5239 39.289 97.6969 38.9433 97.1189 38.252C96.5409 37.5493 96.2519 36.4953 96.2519 35.09V29.684H98.9719V35.226C98.9719 35.7247 99.1139 36.1213 99.3969 36.416C99.6799 36.7107 100.06 36.858 100.536 36.858C101.023 36.858 101.42 36.705 101.726 36.399C102.032 36.093 102.185 35.6793 102.185 35.158V29.684H104.905V39H102.746V35.073H102.933C102.933 36.0137 102.808 36.8013 102.559 37.436C102.321 38.0593 101.964 38.524 101.488 38.83C101.012 39.136 100.423 39.289 99.7199 39.289H99.6009ZM111.305 39V26.59H115.147L117.986 33.56H118.309L121.114 26.59H125.024V39H122.27V28.409L122.661 28.443L119.38 36.484H116.728L113.43 28.443L113.855 28.409V39H111.305ZM128.181 39V29.684H130.901V39H128.181ZM126.94 31.69V29.684H130.901V31.69H126.94ZM129.235 28.766C128.725 28.766 128.346 28.6357 128.096 28.375C127.858 28.103 127.739 27.763 127.739 27.355C127.739 26.9357 127.858 26.5957 128.096 26.335C128.346 26.063 128.725 25.927 129.235 25.927C129.745 25.927 130.119 26.063 130.357 26.335C130.607 26.5957 130.731 26.9357 130.731 27.355C130.731 27.763 130.607 28.103 130.357 28.375C130.119 28.6357 129.745 28.766 129.235 28.766ZM137.038 39.289C135.712 39.289 134.675 39.017 133.927 38.473C133.179 37.929 132.783 37.164 132.737 36.178H135.151C135.197 36.4727 135.372 36.739 135.678 36.977C135.996 37.2037 136.466 37.317 137.089 37.317C137.565 37.317 137.956 37.2377 138.262 37.079C138.58 36.909 138.738 36.671 138.738 36.365C138.738 36.093 138.619 35.8777 138.381 35.719C138.143 35.549 137.718 35.43 137.106 35.362L136.375 35.294C135.253 35.1807 134.409 34.869 133.842 34.359C133.287 33.849 133.009 33.1973 133.009 32.404C133.009 31.7467 133.174 31.197 133.502 30.755C133.831 30.313 134.284 29.9787 134.862 29.752C135.452 29.5253 136.12 29.412 136.868 29.412C138.07 29.412 139.039 29.6783 139.775 30.211C140.512 30.7323 140.897 31.4917 140.931 32.489H138.517C138.472 32.183 138.313 31.928 138.041 31.724C137.769 31.5087 137.367 31.401 136.834 31.401C136.415 31.401 136.081 31.4803 135.831 31.639C135.582 31.7977 135.457 32.013 135.457 32.285C135.457 32.5457 135.565 32.744 135.78 32.88C135.996 33.016 136.347 33.1123 136.834 33.169L137.565 33.237C138.71 33.3617 139.6 33.679 140.234 34.189C140.869 34.699 141.186 35.3847 141.186 36.246C141.186 36.8693 141.016 37.4133 140.676 37.878C140.336 38.3313 139.855 38.6827 139.231 38.932C138.608 39.17 137.877 39.289 137.038 39.289ZM146.569 39.289C145.243 39.289 144.206 39.017 143.458 38.473C142.71 37.929 142.314 37.164 142.268 36.178H144.682C144.728 36.4727 144.903 36.739 145.209 36.977C145.527 37.2037 145.997 37.317 146.62 37.317C147.096 37.317 147.487 37.2377 147.793 37.079C148.111 36.909 148.269 36.671 148.269 36.365C148.269 36.093 148.15 35.8777 147.912 35.719C147.674 35.549 147.249 35.43 146.637 35.362L145.906 35.294C144.784 35.1807 143.94 34.869 143.373 34.359C142.818 33.849 142.54 33.1973 142.54 32.404C142.54 31.7467 142.705 31.197 143.033 30.755C143.362 30.313 143.815 29.9787 144.393 29.752C144.983 29.5253 145.651 29.412 146.399 29.412C147.601 29.412 148.57 29.6783 149.306 30.211C150.043 30.7323 150.428 31.4917 150.462 32.489H148.048C148.003 32.183 147.844 31.928 147.572 31.724C147.3 31.5087 146.898 31.401 146.365 31.401C145.946 31.401 145.612 31.4803 145.362 31.639C145.113 31.7977 144.988 32.013 144.988 32.285C144.988 32.5457 145.096 32.744 145.311 32.88C145.527 33.016 145.878 33.1123 146.365 33.169L147.096 33.237C148.241 33.3617 149.131 33.679 149.765 34.189C150.4 34.699 150.717 35.3847 150.717 36.246C150.717 36.8693 150.547 37.4133 150.207 37.878C149.867 38.3313 149.386 38.6827 148.762 38.932C148.139 39.17 147.408 39.289 146.569 39.289ZM20.1959 130V120.51H22.0419V130H20.1959ZM27.4001 130.091C26.7501 130.091 26.2128 130.009 25.7881 129.844C25.3721 129.671 25.0601 129.385 24.8521 128.986C24.6441 128.579 24.5401 128.033 24.5401 127.348L24.5531 120.952H26.2431L26.2301 127.465C26.2301 127.812 26.3211 128.08 26.5031 128.271C26.6938 128.453 26.9625 128.544 27.3091 128.544H28.4141V130.091H27.4001ZM23.4221 124.267V122.941H28.4141V124.267H23.4221ZM33.2044 130V122.941H35.0114V130H33.2044ZM32.2164 124.293V122.941H35.0114V124.293H32.2164ZM33.8674 122.096C33.5121 122.096 33.2478 122.005 33.0744 121.823C32.9098 121.632 32.8274 121.398 32.8274 121.121C32.8274 120.826 32.9098 120.588 33.0744 120.406C33.2478 120.224 33.5121 120.133 33.8674 120.133C34.2228 120.133 34.4828 120.224 34.6474 120.406C34.8121 120.588 34.8944 120.826 34.8944 121.121C34.8944 121.398 34.8121 121.632 34.6474 121.823C34.4828 122.005 34.2228 122.096 33.8674 122.096ZM39.72 130.221C38.7493 130.221 37.9866 130.017 37.432 129.61C36.886 129.194 36.6 128.622 36.574 127.894H38.199C38.225 128.137 38.3593 128.358 38.602 128.557C38.8446 128.756 39.226 128.856 39.746 128.856C40.1793 128.856 40.5216 128.778 40.773 128.622C41.033 128.466 41.163 128.254 41.163 127.985C41.163 127.751 41.0633 127.565 40.864 127.426C40.6733 127.287 40.344 127.196 39.876 127.153L39.252 127.088C38.4633 127.001 37.8566 126.776 37.432 126.412C37.0073 126.048 36.795 125.563 36.795 124.956C36.795 124.471 36.9163 124.063 37.159 123.734C37.4016 123.405 37.7353 123.158 38.16 122.993C38.5933 122.82 39.0873 122.733 39.642 122.733C40.5086 122.733 41.2106 122.924 41.748 123.305C42.2853 123.686 42.567 124.245 42.593 124.982H40.968C40.9506 124.739 40.8293 124.531 40.604 124.358C40.3786 124.185 40.0536 124.098 39.629 124.098C39.2476 124.098 38.953 124.172 38.745 124.319C38.537 124.466 38.433 124.657 38.433 124.891C38.433 125.116 38.5153 125.29 38.68 125.411C38.8533 125.532 39.1306 125.615 39.512 125.658L40.136 125.723C40.968 125.81 41.618 126.039 42.086 126.412C42.5626 126.785 42.801 127.287 42.801 127.92C42.801 128.388 42.671 128.795 42.411 129.142C42.1596 129.48 41.8043 129.744 41.345 129.935C40.8856 130.126 40.344 130.221 39.72 130.221ZM49.9854 132.782C49.6474 132.782 49.3007 132.769 48.9454 132.743C48.5987 132.717 48.2737 132.682 47.9704 132.639V131.131C48.2824 131.166 48.6161 131.196 48.9714 131.222C49.3267 131.257 49.6604 131.274 49.9724 131.274C50.5531 131.274 51.0211 131.205 51.3764 131.066C51.7404 130.927 52.0047 130.706 52.1694 130.403C52.3427 130.108 52.4294 129.731 52.4294 129.272V127.881L52.8194 126.997C52.7934 127.647 52.6591 128.202 52.4164 128.661C52.1737 129.112 51.8444 129.458 51.4284 129.701C51.0124 129.935 50.5314 130.052 49.9854 130.052C49.5001 130.052 49.0581 129.961 48.6594 129.779C48.2694 129.597 47.9314 129.346 47.6454 129.025C47.3681 128.704 47.1514 128.327 46.9954 127.894C46.8394 127.461 46.7614 126.997 46.7614 126.503V126.23C46.7614 125.736 46.8394 125.277 46.9954 124.852C47.1601 124.419 47.3897 124.042 47.6844 123.721C47.9791 123.4 48.3301 123.153 48.7374 122.98C49.1447 122.807 49.5954 122.72 50.0894 122.72C50.6701 122.72 51.1727 122.846 51.5974 123.097C52.0307 123.348 52.3687 123.712 52.6114 124.189C52.8541 124.666 52.9884 125.251 53.0144 125.944L52.7024 125.996V122.941H54.1324V129.168C54.1324 130.026 53.9851 130.719 53.6904 131.248C53.3957 131.777 52.9407 132.162 52.3254 132.405C51.7187 132.656 50.9387 132.782 49.9854 132.782ZM50.5054 128.505C50.8521 128.505 51.1684 128.427 51.4544 128.271C51.7404 128.115 51.9701 127.89 52.1434 127.595C52.3167 127.3 52.4034 126.945 52.4034 126.529V126.074C52.4034 125.675 52.3124 125.337 52.1304 125.06C51.9571 124.783 51.7274 124.575 51.4414 124.436C51.1554 124.289 50.8434 124.215 50.5054 124.215C50.1241 124.215 49.7861 124.306 49.4914 124.488C49.2054 124.661 48.9801 124.908 48.8154 125.229C48.6507 125.55 48.5684 125.931 48.5684 126.373C48.5684 126.806 48.6507 127.183 48.8154 127.504C48.9801 127.825 49.2054 128.072 49.4914 128.245C49.7861 128.418 50.1241 128.505 50.5054 128.505ZM59.5614 130.247C58.9374 130.247 58.3871 130.147 57.9104 129.948C57.4338 129.749 57.0308 129.48 56.7014 129.142C56.3721 128.795 56.1208 128.405 55.9474 127.972C55.7828 127.539 55.7004 127.088 55.7004 126.62V126.347C55.7004 125.862 55.7871 125.402 55.9604 124.969C56.1424 124.527 56.3981 124.137 56.7274 123.799C57.0654 123.452 57.4728 123.184 57.9494 122.993C58.4261 122.794 58.9634 122.694 59.5614 122.694C60.1594 122.694 60.6968 122.794 61.1734 122.993C61.6501 123.184 62.0531 123.452 62.3824 123.799C62.7204 124.137 62.9761 124.527 63.1494 124.969C63.3228 125.402 63.4094 125.862 63.4094 126.347V126.62C63.4094 127.088 63.3228 127.539 63.1494 127.972C62.9848 128.405 62.7378 128.795 62.4084 129.142C62.0791 129.48 61.6761 129.749 61.1994 129.948C60.7228 130.147 60.1768 130.247 59.5614 130.247ZM59.5614 128.7C60.0034 128.7 60.3761 128.605 60.6794 128.414C60.9828 128.215 61.2124 127.95 61.3684 127.621C61.5244 127.283 61.6024 126.902 61.6024 126.477C61.6024 126.044 61.5201 125.662 61.3554 125.333C61.1994 124.995 60.9654 124.731 60.6534 124.54C60.3501 124.341 59.9861 124.241 59.5614 124.241C59.1368 124.241 58.7684 124.341 58.4564 124.54C58.1531 124.731 57.9191 124.995 57.7544 125.333C57.5898 125.662 57.5074 126.044 57.5074 126.477C57.5074 126.902 57.5854 127.283 57.7414 127.621C57.9061 127.95 58.1401 128.215 58.4434 128.414C58.7468 128.605 59.1194 128.7 59.5614 128.7ZM65.3947 130V122.941H67.2017V130H65.3947ZM64.4067 124.293V122.941H67.2017V124.293H64.4067ZM66.0577 122.096C65.7023 122.096 65.438 122.005 65.2647 121.823C65.1 121.632 65.0177 121.398 65.0177 121.121C65.0177 120.826 65.1 120.588 65.2647 120.406C65.438 120.224 65.7023 120.133 66.0577 120.133C66.413 120.133 66.673 120.224 66.8377 120.406C67.0023 120.588 67.0847 120.826 67.0847 121.121C67.0847 121.398 67.0023 121.632 66.8377 121.823C66.673 122.005 66.413 122.096 66.0577 122.096ZM69.3492 130V122.941H70.7792V125.97H70.6492C70.6492 125.251 70.7445 124.653 70.9352 124.176C71.1259 123.691 71.4075 123.327 71.7802 123.084C72.1615 122.841 72.6339 122.72 73.1972 122.72H73.2752C74.1159 122.72 74.7529 122.993 75.1862 123.539C75.6195 124.076 75.8362 124.882 75.8362 125.957V130H74.0292V125.801C74.0292 125.368 73.9035 125.017 73.6522 124.748C73.4095 124.479 73.0715 124.345 72.6382 124.345C72.1962 124.345 71.8365 124.484 71.5592 124.761C71.2905 125.03 71.1562 125.394 71.1562 125.853V130H69.3492ZM80.5999 132.782C80.2619 132.782 79.9152 132.769 79.5599 132.743C79.2132 132.717 78.8882 132.682 78.5849 132.639V131.131C78.8969 131.166 79.2306 131.196 79.5859 131.222C79.9412 131.257 80.2749 131.274 80.5869 131.274C81.1676 131.274 81.6356 131.205 81.9909 131.066C82.3549 130.927 82.6192 130.706 82.7839 130.403C82.9572 130.108 83.0439 129.731 83.0439 129.272V127.881L83.4339 126.997C83.4079 127.647 83.2736 128.202 83.0309 128.661C82.7882 129.112 82.4589 129.458 82.0429 129.701C81.6269 129.935 81.1459 130.052 80.5999 130.052C80.1146 130.052 79.6726 129.961 79.2739 129.779C78.8839 129.597 78.5459 129.346 78.2599 129.025C77.9826 128.704 77.7659 128.327 77.6099 127.894C77.4539 127.461 77.3759 126.997 77.3759 126.503V126.23C77.3759 125.736 77.4539 125.277 77.6099 124.852C77.7746 124.419 78.0042 124.042 78.2989 123.721C78.5936 123.4 78.9446 123.153 79.3519 122.98C79.7592 122.807 80.2099 122.72 80.7039 122.72C81.2846 122.72 81.7872 122.846 82.2119 123.097C82.6452 123.348 82.9832 123.712 83.2259 124.189C83.4686 124.666 83.6029 125.251 83.6289 125.944L83.3169 125.996V122.941H84.7469V129.168C84.7469 130.026 84.5996 130.719 84.3049 131.248C84.0102 131.777 83.5552 132.162 82.9399 132.405C82.3332 132.656 81.5532 132.782 80.5999 132.782ZM81.1199 128.505C81.4666 128.505 81.7829 128.427 82.0689 128.271C82.3549 128.115 82.5846 127.89 82.7579 127.595C82.9312 127.3 83.0179 126.945 83.0179 126.529V126.074C83.0179 125.675 82.9269 125.337 82.7449 125.06C82.5716 124.783 82.3419 124.575 82.0559 124.436C81.7699 124.289 81.4579 124.215 81.1199 124.215C80.7386 124.215 80.4006 124.306 80.1059 124.488C79.8199 124.661 79.5946 124.908 79.4299 125.229C79.2652 125.55 79.1829 125.931 79.1829 126.373C79.1829 126.806 79.2652 127.183 79.4299 127.504C79.5946 127.825 79.8199 128.072 80.1059 128.245C80.4006 128.418 80.7386 128.505 81.1199 128.505ZM92.7219 130.091C92.0719 130.091 91.5342 130.009 91.1096 129.844C90.6936 129.671 90.3816 129.385 90.1736 128.986C89.9656 128.579 89.8616 128.033 89.8616 127.348L89.8746 120.952H91.5646L91.5516 127.465C91.5516 127.812 91.6426 128.08 91.8246 128.271C92.0149 128.453 92.2839 128.544 92.6309 128.544H93.7359V130.091H92.7219ZM88.7436 124.267V122.941H93.7359V124.267H88.7436ZM98.6719 130.247C98.0479 130.247 97.4979 130.147 97.0209 129.948C96.5449 129.749 96.1419 129.48 95.8119 129.142C95.4829 128.795 95.2319 128.405 95.0579 127.972C94.8939 127.539 94.8109 127.088 94.8109 126.62V126.347C94.8109 125.862 94.8979 125.402 95.0709 124.969C95.2529 124.527 95.5089 124.137 95.8379 123.799C96.1759 123.452 96.5839 123.184 97.0599 122.993C97.5369 122.794 98.0739 122.694 98.6719 122.694C99.2699 122.694 99.8079 122.794 100.284 122.993C100.761 123.184 101.164 123.452 101.493 123.799C101.831 124.137 102.087 124.527 102.26 124.969C102.434 125.402 102.52 125.862 102.52 126.347V126.62C102.52 127.088 102.434 127.539 102.26 127.972C102.096 128.405 101.849 128.795 101.519 129.142C101.19 129.48 100.787 129.749 100.31 129.948C99.8339 130.147 99.2879 130.247 98.6719 130.247ZM98.6719 128.7C99.1139 128.7 99.4869 128.605 99.7899 128.414C100.094 128.215 100.323 127.95 100.479 127.621C100.635 127.283 100.713 126.902 100.713 126.477C100.713 126.044 100.631 125.662 100.466 125.333C100.31 124.995 100.076 124.731 99.7639 124.54C99.4609 124.341 99.0969 124.241 98.6719 124.241C98.2479 124.241 97.8789 124.341 97.5669 124.54C97.2639 124.731 97.0299 124.995 96.8649 125.333C96.7009 125.662 96.6179 126.044 96.6179 126.477C96.6179 126.902 96.6959 127.283 96.8519 127.621C97.0169 127.95 97.2509 128.215 97.5539 128.414C97.8579 128.605 98.2299 128.7 98.6719 128.7ZM111.185 130.234C110.604 130.234 110.093 130.113 109.651 129.87C109.209 129.619 108.862 129.255 108.611 128.778C108.36 128.301 108.221 127.725 108.195 127.049H108.468V130H107.038V120.51H108.845V125.255L108.364 125.996C108.399 125.268 108.542 124.661 108.793 124.176C109.053 123.691 109.4 123.327 109.833 123.084C110.266 122.841 110.756 122.72 111.302 122.72C111.787 122.72 112.229 122.811 112.628 122.993C113.027 123.175 113.369 123.431 113.655 123.76C113.941 124.081 114.158 124.458 114.305 124.891C114.461 125.324 114.539 125.797 114.539 126.308V126.581C114.539 127.092 114.461 127.569 114.305 128.011C114.149 128.453 113.924 128.843 113.629 129.181C113.334 129.51 112.979 129.77 112.563 129.961C112.156 130.143 111.696 130.234 111.185 130.234ZM110.782 128.713C111.172 128.713 111.51 128.618 111.796 128.427C112.091 128.228 112.32 127.959 112.485 127.621C112.65 127.283 112.732 126.893 112.732 126.451C112.732 126 112.65 125.61 112.485 125.281C112.32 124.952 112.091 124.696 111.796 124.514C111.51 124.332 111.172 124.241 110.782 124.241C110.427 124.241 110.097 124.319 109.794 124.475C109.499 124.631 109.257 124.861 109.066 125.164C108.884 125.467 108.793 125.831 108.793 126.256V126.776C108.793 127.183 108.888 127.53 109.079 127.816C109.27 128.102 109.517 128.323 109.82 128.479C110.123 128.635 110.444 128.713 110.782 128.713ZM119.352 130.247C118.745 130.247 118.212 130.143 117.753 129.935C117.302 129.727 116.925 129.45 116.622 129.103C116.327 128.748 116.102 128.353 115.946 127.92C115.799 127.487 115.725 127.045 115.725 126.594V126.347C115.725 125.879 115.799 125.428 115.946 124.995C116.102 124.553 116.327 124.163 116.622 123.825C116.925 123.478 117.298 123.205 117.74 123.006C118.182 122.798 118.693 122.694 119.274 122.694C120.037 122.694 120.674 122.863 121.185 123.201C121.705 123.53 122.095 123.968 122.355 124.514C122.615 125.051 122.745 125.632 122.745 126.256V126.906H116.492V125.801H121.614L121.055 126.347C121.055 125.896 120.99 125.511 120.86 125.19C120.73 124.869 120.531 124.622 120.262 124.449C120.002 124.276 119.673 124.189 119.274 124.189C118.875 124.189 118.537 124.28 118.26 124.462C117.983 124.644 117.77 124.908 117.623 125.255C117.484 125.593 117.415 126 117.415 126.477C117.415 126.919 117.484 127.313 117.623 127.66C117.762 127.998 117.974 128.267 118.26 128.466C118.546 128.657 118.91 128.752 119.352 128.752C119.794 128.752 120.154 128.665 120.431 128.492C120.708 128.31 120.886 128.089 120.964 127.829H122.628C122.524 128.314 122.325 128.739 122.03 129.103C121.735 129.467 121.358 129.749 120.899 129.948C120.448 130.147 119.933 130.247 119.352 130.247ZM131.467 130V127.907H131.168V125.58C131.168 125.173 131.068 124.869 130.869 124.67C130.67 124.471 130.362 124.371 129.946 124.371C129.729 124.371 129.469 124.375 129.166 124.384C128.863 124.393 128.555 124.406 128.243 124.423C127.94 124.432 127.667 124.445 127.424 124.462V122.928C127.623 122.911 127.849 122.893 128.1 122.876C128.351 122.859 128.607 122.85 128.867 122.85C129.136 122.841 129.387 122.837 129.621 122.837C130.349 122.837 130.951 122.932 131.428 123.123C131.913 123.314 132.277 123.613 132.52 124.02C132.771 124.427 132.897 124.96 132.897 125.619V130H131.467ZM129.192 130.182C128.681 130.182 128.23 130.091 127.84 129.909C127.459 129.727 127.16 129.467 126.943 129.129C126.735 128.791 126.631 128.384 126.631 127.907C126.631 127.387 126.757 126.962 127.008 126.633C127.268 126.304 127.628 126.057 128.087 125.892C128.555 125.727 129.101 125.645 129.725 125.645H131.363V126.724H129.699C129.283 126.724 128.962 126.828 128.737 127.036C128.52 127.235 128.412 127.495 128.412 127.816C128.412 128.137 128.52 128.397 128.737 128.596C128.962 128.795 129.283 128.895 129.699 128.895C129.95 128.895 130.18 128.852 130.388 128.765C130.605 128.67 130.782 128.514 130.921 128.297C131.068 128.072 131.151 127.768 131.168 127.387L131.61 127.894C131.567 128.388 131.445 128.804 131.246 129.142C131.055 129.48 130.787 129.74 130.44 129.922C130.102 130.095 129.686 130.182 129.192 130.182ZM20.0269 146V138.941H21.4569V141.97H21.3269C21.3269 141.259 21.4179 140.666 21.5999 140.189C21.7819 139.704 22.0506 139.34 22.4059 139.097C22.7699 138.846 23.2206 138.72 23.7579 138.72H23.8359C24.3819 138.72 24.8326 138.846 25.1879 139.097C25.5519 139.34 25.8206 139.704 25.9939 140.189C26.1759 140.666 26.2669 141.259 26.2669 141.97H25.8119C25.8119 141.259 25.9029 140.666 26.0849 140.189C26.2756 139.704 26.5486 139.34 26.9039 139.097C27.2679 138.846 27.7186 138.72 28.2559 138.72H28.3339C28.8799 138.72 29.3349 138.846 29.6989 139.097C30.0629 139.34 30.3359 139.704 30.5179 140.189C30.7086 140.666 30.8039 141.259 30.8039 141.97V146H28.9969V141.801C28.9969 141.359 28.8842 141.008 28.6589 140.748C28.4336 140.479 28.1129 140.345 27.6969 140.345C27.2809 140.345 26.9472 140.484 26.6959 140.761C26.4446 141.03 26.3189 141.394 26.3189 141.853V146H24.5119V141.801C24.5119 141.359 24.3992 141.008 24.1739 140.748C23.9486 140.479 23.6279 140.345 23.2119 140.345C22.7959 140.345 22.4622 140.484 22.2109 140.761C21.9596 141.03 21.8339 141.394 21.8339 141.853V146H20.0269ZM33.1379 146V138.941H34.9449V146H33.1379ZM32.1499 140.293V138.941H34.9449V140.293H32.1499ZM33.8009 138.096C33.4456 138.096 33.1812 138.005 33.0079 137.823C32.8432 137.632 32.7609 137.398 32.7609 137.121C32.7609 136.826 32.8432 136.588 33.0079 136.406C33.1812 136.224 33.4456 136.133 33.8009 136.133C34.1562 136.133 34.4162 136.224 34.5809 136.406C34.7456 136.588 34.8279 136.826 34.8279 137.121C34.8279 137.398 34.7456 137.632 34.5809 137.823C34.4162 138.005 34.1562 138.096 33.8009 138.096ZM39.6534 146.221C38.6828 146.221 37.9201 146.017 37.3654 145.61C36.8194 145.194 36.5334 144.622 36.5074 143.894H38.1324C38.1584 144.137 38.2928 144.358 38.5354 144.557C38.7781 144.756 39.1594 144.856 39.6794 144.856C40.1128 144.856 40.4551 144.778 40.7064 144.622C40.9664 144.466 41.0964 144.254 41.0964 143.985C41.0964 143.751 40.9968 143.565 40.7974 143.426C40.6068 143.287 40.2774 143.196 39.8094 143.153L39.1854 143.088C38.3968 143.001 37.7901 142.776 37.3654 142.412C36.9408 142.048 36.7284 141.563 36.7284 140.956C36.7284 140.471 36.8498 140.063 37.0924 139.734C37.3351 139.405 37.6688 139.158 38.0934 138.993C38.5268 138.82 39.0208 138.733 39.5754 138.733C40.4421 138.733 41.1441 138.924 41.6814 139.305C42.2188 139.686 42.5004 140.245 42.5264 140.982H40.9014C40.8841 140.739 40.7628 140.531 40.5374 140.358C40.3121 140.185 39.9871 140.098 39.5624 140.098C39.1811 140.098 38.8864 140.172 38.6784 140.319C38.4704 140.466 38.3664 140.657 38.3664 140.891C38.3664 141.116 38.4488 141.29 38.6134 141.411C38.7868 141.532 39.0641 141.615 39.4454 141.658L40.0694 141.723C40.9014 141.81 41.5514 142.039 42.0194 142.412C42.4961 142.785 42.7344 143.287 42.7344 143.92C42.7344 144.388 42.6044 144.795 42.3444 145.142C42.0931 145.48 41.7378 145.744 41.2784 145.935C40.8191 146.126 40.2774 146.221 39.6534 146.221ZM47.4512 146.247C46.8445 146.247 46.3115 146.143 45.8522 145.935C45.4015 145.727 45.0245 145.45 44.7212 145.103C44.4265 144.748 44.2012 144.353 44.0452 143.92C43.8979 143.487 43.8242 143.045 43.8242 142.594V142.347C43.8242 141.879 43.8979 141.428 44.0452 140.995C44.2012 140.553 44.4265 140.163 44.7212 139.825C45.0245 139.478 45.3972 139.205 45.8392 139.006C46.2812 138.798 46.7925 138.694 47.3732 138.694C48.1359 138.694 48.7729 138.863 49.2842 139.201C49.8042 139.53 50.1942 139.968 50.4542 140.514C50.7142 141.051 50.8442 141.632 50.8442 142.256V142.906H44.5912V141.801H49.7132L49.1542 142.347C49.1542 141.896 49.0892 141.511 48.9592 141.19C48.8292 140.869 48.6299 140.622 48.3612 140.449C48.1012 140.276 47.7719 140.189 47.3732 140.189C46.9745 140.189 46.6365 140.28 46.3592 140.462C46.0819 140.644 45.8695 140.908 45.7222 141.255C45.5835 141.593 45.5142 142 45.5142 142.477C45.5142 142.919 45.5835 143.313 45.7222 143.66C45.8609 143.998 46.0732 144.267 46.3592 144.466C46.6452 144.657 47.0092 144.752 47.4512 144.752C47.8932 144.752 48.2529 144.665 48.5302 144.492C48.8075 144.31 48.9852 144.089 49.0632 143.829H50.7272C50.6232 144.314 50.4239 144.739 50.1292 145.103C49.8345 145.467 49.4575 145.749 48.9982 145.948C48.5475 146.147 48.0319 146.247 47.4512 146.247ZM52.4187 146V138.941H53.8487V141.931H53.8097C53.8097 140.917 54.0264 140.15 54.4597 139.63C54.8931 139.11 55.5301 138.85 56.3707 138.85H56.6307V140.423H56.1367C55.5301 140.423 55.0577 140.588 54.7197 140.917C54.3904 141.238 54.2257 141.706 54.2257 142.321V146H52.4187ZM62.1435 146V143.907H61.8445V141.58C61.8445 141.173 61.7449 140.869 61.5455 140.67C61.3462 140.471 61.0385 140.371 60.6225 140.371C60.4059 140.371 60.1459 140.375 59.8425 140.384C59.5392 140.393 59.2315 140.406 58.9195 140.423C58.6162 140.432 58.3432 140.445 58.1005 140.462V138.928C58.2999 138.911 58.5252 138.893 58.7765 138.876C59.0279 138.859 59.2835 138.85 59.5435 138.85C59.8122 138.841 60.0635 138.837 60.2975 138.837C61.0255 138.837 61.6279 138.932 62.1045 139.123C62.5899 139.314 62.9539 139.613 63.1965 140.02C63.4479 140.427 63.5735 140.96 63.5735 141.619V146H62.1435ZM59.8685 146.182C59.3572 146.182 58.9065 146.091 58.5165 145.909C58.1352 145.727 57.8362 145.467 57.6195 145.129C57.4115 144.791 57.3075 144.384 57.3075 143.907C57.3075 143.387 57.4332 142.962 57.6845 142.633C57.9445 142.304 58.3042 142.057 58.7635 141.892C59.2315 141.727 59.7775 141.645 60.4015 141.645H62.0395V142.724H60.3755C59.9595 142.724 59.6389 142.828 59.4135 143.036C59.1969 143.235 59.0885 143.495 59.0885 143.816C59.0885 144.137 59.1969 144.397 59.4135 144.596C59.6389 144.795 59.9595 144.895 60.3755 144.895C60.6269 144.895 60.8565 144.852 61.0645 144.765C61.2812 144.67 61.4589 144.514 61.5975 144.297C61.7449 144.072 61.8272 143.768 61.8445 143.387L62.2865 143.894C62.2432 144.388 62.1219 144.804 61.9225 145.142C61.7319 145.48 61.4632 145.74 61.1165 145.922C60.7785 146.095 60.3625 146.182 59.8685 146.182ZM69.7211 146.234C69.1405 146.234 68.6291 146.113 68.1871 145.87C67.7451 145.619 67.3985 145.255 67.1471 144.778C66.8958 144.301 66.7571 143.725 66.7311 143.049H67.0041V146H65.5741V136.51H67.3811V141.255L66.9001 141.996C66.9348 141.268 67.0778 140.661 67.3291 140.176C67.5891 139.691 67.9358 139.327 68.3691 139.084C68.8025 138.841 69.2921 138.72 69.8381 138.72C70.3235 138.72 70.7655 138.811 71.1641 138.993C71.5628 139.175 71.9051 139.431 72.1911 139.76C72.4771 140.081 72.6938 140.458 72.8411 140.891C72.9971 141.324 73.0751 141.797 73.0751 142.308V142.581C73.0751 143.092 72.9971 143.569 72.8411 144.011C72.6851 144.453 72.4598 144.843 72.1651 145.181C71.8705 145.51 71.5151 145.77 71.0991 145.961C70.6918 146.143 70.2325 146.234 69.7211 146.234ZM69.3181 144.713C69.7081 144.713 70.0461 144.618 70.3321 144.427C70.6268 144.228 70.8565 143.959 71.0211 143.621C71.1858 143.283 71.2681 142.893 71.2681 142.451C71.2681 142 71.1858 141.61 71.0211 141.281C70.8565 140.952 70.6268 140.696 70.3321 140.514C70.0461 140.332 69.7081 140.241 69.3181 140.241C68.9628 140.241 68.6335 140.319 68.3301 140.475C68.0355 140.631 67.7928 140.861 67.6021 141.164C67.4201 141.467 67.3291 141.831 67.3291 142.256V142.776C67.3291 143.183 67.4245 143.53 67.6151 143.816C67.8058 144.102 68.0528 144.323 68.3561 144.479C68.6595 144.635 68.9801 144.713 69.3181 144.713ZM74.82 146V136.51H76.627V146H74.82ZM73.936 137.862V136.51H76.627V137.862H73.936ZM81.9139 146.247C81.3072 146.247 80.7742 146.143 80.3149 145.935C79.8642 145.727 79.4872 145.45 79.1839 145.103C78.8892 144.748 78.6639 144.353 78.5079 143.92C78.3606 143.487 78.2869 143.045 78.2869 142.594V142.347C78.2869 141.879 78.3606 141.428 78.5079 140.995C78.6639 140.553 78.8892 140.163 79.1839 139.825C79.4872 139.478 79.8599 139.205 80.3019 139.006C80.7439 138.798 81.2552 138.694 81.8359 138.694C82.5986 138.694 83.2356 138.863 83.7469 139.201C84.2669 139.53 84.6569 139.968 84.9169 140.514C85.1769 141.051 85.3069 141.632 85.3069 142.256V142.906H79.0539V141.801H84.1759L83.6169 142.347C83.6169 141.896 83.5519 141.511 83.4219 141.19C83.2919 140.869 83.0926 140.622 82.8239 140.449C82.5639 140.276 82.2346 140.189 81.8359 140.189C81.4372 140.189 81.0992 140.28 80.8219 140.462C80.5446 140.644 80.3322 140.908 80.1849 141.255C80.0462 141.593 79.9769 142 79.9769 142.477C79.9769 142.919 80.0462 143.313 80.1849 143.66C80.3236 143.998 80.5359 144.267 80.8219 144.466C81.1079 144.657 81.4719 144.752 81.9139 144.752C82.3559 144.752 82.7156 144.665 82.9929 144.492C83.2702 144.31 83.4479 144.089 83.5259 143.829H85.1899C85.0859 144.314 84.8866 144.739 84.5919 145.103C84.2972 145.467 83.9202 145.749 83.4609 145.948C83.0102 146.147 82.4946 146.247 81.9139 146.247ZM92.6769 146.234C92.1829 146.234 91.7281 146.143 91.3121 145.961C90.8961 145.779 90.5364 145.523 90.2331 145.194C89.9298 144.865 89.6958 144.483 89.5311 144.05C89.3664 143.608 89.2841 143.131 89.2841 142.62V142.347C89.2841 141.844 89.3621 141.372 89.5181 140.93C89.6828 140.488 89.9081 140.102 90.1941 139.773C90.4888 139.444 90.8398 139.188 91.2471 139.006C91.6631 138.815 92.1229 138.72 92.6249 138.72C93.1799 138.72 93.6649 138.841 94.0809 139.084C94.5059 139.318 94.8439 139.673 95.0949 140.15C95.3469 140.627 95.4849 141.225 95.5109 141.944L94.9779 141.32V136.51H96.7849V146H95.3549V142.997H95.6669C95.6409 143.716 95.4939 144.319 95.2249 144.804C94.9569 145.281 94.6009 145.64 94.1589 145.883C93.7259 146.117 93.2319 146.234 92.6769 146.234ZM93.0799 144.713C93.4359 144.713 93.7609 144.635 94.0549 144.479C94.3499 144.314 94.5839 144.08 94.7569 143.777C94.9389 143.465 95.0299 143.101 95.0299 142.685V142.165C95.0299 141.749 94.9389 141.402 94.7569 141.125C94.5749 140.839 94.3369 140.622 94.0419 140.475C93.7479 140.319 93.4269 140.241 93.0799 140.241C92.6899 140.241 92.3439 140.336 92.0399 140.527C91.7454 140.709 91.5114 140.969 91.3381 141.307C91.1734 141.645 91.0911 142.039 91.0911 142.49C91.0911 142.941 91.1778 143.335 91.3511 143.673C91.5244 144.002 91.7584 144.258 92.0529 144.44C92.3569 144.622 92.6989 144.713 93.0799 144.713ZM103.184 146V143.907H102.885V141.58C102.885 141.173 102.785 140.869 102.586 140.67C102.387 140.471 102.079 140.371 101.663 140.371C101.446 140.371 101.186 140.375 100.883 140.384C100.58 140.393 100.272 140.406 99.9599 140.423C99.6569 140.432 99.3839 140.445 99.1409 140.462V138.928C99.3399 138.911 99.5659 138.893 99.8169 138.876C100.068 138.859 100.324 138.85 100.584 138.85C100.853 138.841 101.104 138.837 101.338 138.837C102.066 138.837 102.668 138.932 103.145 139.123C103.63 139.314 103.994 139.613 104.237 140.02C104.488 140.427 104.614 140.96 104.614 141.619V146H103.184ZM100.909 146.182C100.398 146.182 99.9469 146.091 99.5569 145.909C99.1759 145.727 98.8769 145.467 98.6599 145.129C98.4519 144.791 98.3479 144.384 98.3479 143.907C98.3479 143.387 98.4739 142.962 98.7249 142.633C98.9849 142.304 99.3449 142.057 99.8039 141.892C100.272 141.727 100.818 141.645 101.442 141.645H103.08V142.724H101.416C101 142.724 100.679 142.828 100.454 143.036C100.237 143.235 100.129 143.495 100.129 143.816C100.129 144.137 100.237 144.397 100.454 144.596C100.679 144.795 101 144.895 101.416 144.895C101.667 144.895 101.897 144.852 102.105 144.765C102.322 144.67 102.499 144.514 102.638 144.297C102.785 144.072 102.868 143.768 102.885 143.387L103.327 143.894C103.284 144.388 103.162 144.804 102.963 145.142C102.772 145.48 102.504 145.74 102.157 145.922C101.819 146.095 101.403 146.182 100.909 146.182ZM106.318 148.782V147.235H107.644C107.895 147.235 108.103 147.2 108.268 147.131C108.441 147.07 108.584 146.966 108.697 146.819C108.809 146.68 108.896 146.485 108.957 146.234L110.855 138.941H112.584L110.491 146.624C110.352 147.153 110.157 147.573 109.906 147.885C109.654 148.206 109.329 148.435 108.931 148.574C108.541 148.713 108.055 148.782 107.475 148.782H106.318ZM108.515 145.844V144.414H110.023V145.844H108.515ZM107.904 145.844L105.616 138.941H107.436L109.607 145.844H107.904ZM119.179 146L120.518 139.175H122.598L124.145 146H122.715L121.142 139.214H121.896L120.505 146H119.179ZM118.646 146L118.633 144.518H120.076V146H118.646ZM117.918 146L115.994 138.941H117.749L119.582 146H117.918ZM123.17 146V144.518H124.613L124.6 146H123.17ZM123.742 146L125.367 138.941H127.005L125.302 146H123.742ZM128.831 146V138.941H130.638V146H128.831ZM127.843 140.293V138.941H130.638V140.293H127.843ZM129.494 138.096C129.139 138.096 128.875 138.005 128.701 137.823C128.537 137.632 128.454 137.398 128.454 137.121C128.454 136.826 128.537 136.588 128.701 136.406C128.875 136.224 129.139 136.133 129.494 136.133C129.85 136.133 130.11 136.224 130.274 136.406C130.439 136.588 130.521 136.826 130.521 137.121C130.521 137.398 130.439 137.632 130.274 137.823C130.11 138.005 129.85 138.096 129.494 138.096ZM135.854 146.091C135.204 146.091 134.666 146.009 134.242 145.844C133.826 145.671 133.514 145.385 133.306 144.986C133.098 144.579 132.994 144.033 132.994 143.348L133.007 136.952H134.697L134.684 143.465C134.684 143.812 134.775 144.08 134.957 144.271C135.147 144.453 135.416 144.544 135.763 144.544H136.868V146.091H135.854ZM131.876 140.267V138.941H136.868V140.267H131.876ZM138.449 146V136.51H140.256V142.048H139.944C139.944 141.337 140.035 140.735 140.217 140.241C140.399 139.747 140.668 139.37 141.023 139.11C141.387 138.85 141.847 138.72 142.401 138.72H142.479C143.285 138.72 143.896 138.997 144.312 139.552C144.728 140.107 144.936 140.913 144.936 141.97V146H143.129V141.801C143.129 141.35 142.999 140.995 142.739 140.735C142.488 140.475 142.154 140.345 141.738 140.345C141.296 140.345 140.937 140.492 140.659 140.787C140.391 141.073 140.256 141.45 140.256 141.918V146H138.449Z" fill="white"/>
<path d="M22.859 81V70.681H25.647V81H22.859ZM19.374 71.021V68.59H29.149V71.021H19.374ZM39.0118 81V68.59H41.7998V81H39.0118ZM30.9878 81V68.59H33.7758V81H30.9878ZM33.2828 75.985V73.537H39.5048V75.985H33.2828ZM44.6695 81V68.59H47.3895V81H44.6695ZM47.0495 81V78.688H52.4725V81H47.0495ZM47.0495 75.849V73.537H52.0815V75.849H47.0495ZM47.0495 70.902V68.59H52.3535V70.902H47.0495ZM58.5026 81V68.59H61.2906V81H58.5026ZM60.9506 76.002V73.69H65.7446V76.002H60.9506ZM60.9506 70.902V68.59H65.9486V70.902H60.9506ZM66.1304 81L70.2274 68.59H74.7324L78.9824 81H76.0924L72.6584 70.511L73.5424 70.868H71.3494L72.2674 70.511L68.9184 81H66.1304ZM69.2414 77.923L70.0914 75.611H74.9534L75.8204 77.923H69.2414ZM84.3436 81.323C83.4029 81.323 82.5869 81.1473 81.8956 80.796C81.2156 80.4333 80.6886 79.912 80.3146 79.232C79.9519 78.552 79.7706 77.7247 79.7706 76.75V76.121H82.5246V76.903C82.5246 77.447 82.6833 77.889 83.0006 78.229C83.3293 78.5577 83.7769 78.722 84.3436 78.722C84.8989 78.722 85.3353 78.5577 85.6526 78.229C85.9813 77.889 86.1456 77.447 86.1456 76.903V70.681H88.9336V76.75C88.9336 77.7247 88.7466 78.552 88.3726 79.232C88.0099 79.912 87.4829 80.4333 86.7916 80.796C86.1116 81.1473 85.2956 81.323 84.3436 81.323ZM81.2156 71.021V68.59H88.9336V71.021H81.2156ZM91.5954 81V68.488H94.383V81H91.5954ZM99.126 81L95.488 75.662H98.548L102.356 81H99.126ZM93.635 77.022V74.829H96.695C97.103 74.829 97.455 74.7497 97.749 74.591C98.055 74.421 98.288 74.1887 98.446 73.894C98.616 73.588 98.701 73.2367 98.701 72.84C98.701 72.4433 98.616 72.0977 98.446 71.803C98.288 71.497 98.055 71.2647 97.749 71.106C97.455 70.936 97.103 70.851 96.695 70.851H93.635V68.488H96.474C97.506 68.488 98.401 68.6467 99.16 68.964C99.92 69.27 100.503 69.729 100.911 70.341C101.319 70.953 101.523 71.7237 101.523 72.653V72.925C101.523 73.843 101.314 74.608 100.894 75.22C100.486 75.8207 99.903 76.274 99.143 76.58C98.395 76.8747 97.506 77.022 96.474 77.022H93.635ZM22.842 98.447V96.033H25.069C25.4997 96.033 25.868 95.948 26.174 95.778C26.4913 95.608 26.735 95.37 26.905 95.064C27.075 94.747 27.16 94.384 27.16 93.976C27.16 93.545 27.075 93.177 26.905 92.871C26.735 92.5537 26.4913 92.3157 26.174 92.157C25.868 91.987 25.4997 91.902 25.069 91.902H22.842V89.488H24.933C25.987 89.488 26.888 89.6637 27.636 90.015C28.3953 90.3663 28.9733 90.865 29.37 91.511C29.778 92.157 29.982 92.9333 29.982 93.84V94.112C29.982 94.996 29.778 95.767 29.37 96.424C28.9733 97.07 28.3953 97.569 27.636 97.92C26.888 98.271 25.987 98.447 24.933 98.447H22.842ZM20.394 102V89.488H23.182V102H20.394ZM31.8179 102V89.488H34.6059V102H31.8179ZM39.3489 102L35.7109 96.662H38.7709L42.5789 102H39.3489ZM33.8579 98.022V95.829H36.9179C37.3259 95.829 37.6772 95.75 37.9719 95.591C38.2779 95.421 38.5102 95.189 38.6689 94.894C38.8389 94.588 38.9239 94.237 38.9239 93.84C38.9239 93.443 38.8389 93.098 38.6689 92.803C38.5102 92.497 38.2779 92.2647 37.9719 92.106C37.6772 91.936 37.3259 91.851 36.9179 91.851H33.8579V89.488H36.6969C37.7282 89.488 38.6235 89.6467 39.3829 89.964C40.1422 90.27 40.7259 90.729 41.1339 91.341C41.5419 91.953 41.7459 92.7237 41.7459 93.653V93.925C41.7459 94.843 41.5362 95.608 41.1169 96.22C40.7089 96.821 40.1252 97.274 39.3659 97.58C38.6179 97.875 37.7282 98.022 36.6969 98.022H33.8579ZM43.1478 102L47.2448 89.59H51.7498L55.9998 102H53.1098L49.6758 91.511L50.5598 91.868H48.3668L49.2848 91.511L45.9358 102H43.1478ZM46.2588 98.923L47.1088 96.611H51.9708L52.8378 98.923H46.2588ZM58.9208 97.291L55.2998 89.59H58.1558L60.7568 95.353L60.2638 95.2H61.6918L61.1648 95.353L63.5108 89.59H66.2138L62.8818 97.291H58.9208ZM59.5328 102V96.9H62.2698V102H59.5328ZM67.8326 102V89.59H70.5526V102H67.8326ZM70.2126 102V99.688H75.6356V102H70.2126ZM70.2126 96.849V94.537H75.2446V96.849H70.2126ZM70.2126 91.902V89.59H75.5166V91.902H70.2126ZM78.0114 102V89.488H80.7994V102H78.0114ZM85.5424 102L81.9044 96.662H84.9644L88.7724 102H85.5424ZM80.0514 98.022V95.829H83.1114C83.5194 95.829 83.8707 95.75 84.1654 95.591C84.4714 95.421 84.7037 95.189 84.8624 94.894C85.0324 94.588 85.1174 94.237 85.1174 93.84C85.1174 93.443 85.0324 93.098 84.8624 92.803C84.7037 92.497 84.4714 92.2647 84.1654 92.106C83.8707 91.936 83.5194 91.851 83.1114 91.851H80.0514V89.488H82.8904C83.9217 89.488 84.817 89.6467 85.5764 89.964C86.3357 90.27 86.9194 90.729 87.3274 91.341C87.7354 91.953 87.9394 92.7237 87.9394 93.653V93.925C87.9394 94.843 87.7297 95.608 87.3104 96.22C86.9024 96.821 86.3187 97.274 85.5594 97.58C84.8114 97.875 83.9217 98.022 82.8904 98.022H80.0514ZM91.3304 104.907L89.2394 104.091L91.0244 98.889L93.336 99.739L91.3304 104.907Z" fill="#A4F4FF"/>
<path d="M27.136 176.456C25.584 176.456 24.272 176.208 23.2 175.712C22.144 175.216 21.336 174.536 20.776 173.672C20.216 172.792 19.936 171.8 19.936 170.696H23.272C23.272 171.16 23.4 171.616 23.656 172.064C23.912 172.496 24.32 172.848 24.88 173.12C25.456 173.392 26.208 173.528 27.136 173.528C27.968 173.528 28.664 173.408 29.224 173.168C29.784 172.928 30.2 172.616 30.472 172.232C30.744 171.832 30.88 171.384 30.88 170.888C30.88 170.264 30.616 169.768 30.088 169.4C29.56 169.016 28.744 168.776 27.64 168.68L26.104 168.56C24.424 168.416 23.08 167.896 22.072 167C21.08 166.088 20.584 164.888 20.584 163.4C20.584 162.28 20.848 161.32 21.376 160.52C21.904 159.704 22.64 159.08 23.584 158.648C24.544 158.2 25.664 157.976 26.944 157.976C28.272 157.976 29.416 158.208 30.376 158.672C31.336 159.136 32.08 159.792 32.608 160.64C33.136 161.472 33.4 162.456 33.4 163.592H30.064C30.064 163.112 29.944 162.672 29.704 162.272C29.48 161.856 29.136 161.528 28.672 161.288C28.224 161.032 27.648 160.904 26.944 160.904C26.272 160.904 25.712 161.016 25.264 161.24C24.816 161.464 24.48 161.768 24.256 162.152C24.032 162.536 23.92 162.952 23.92 163.4C23.92 163.944 24.12 164.424 24.52 164.84C24.92 165.24 25.552 165.472 26.416 165.536L27.952 165.68C29.2 165.776 30.296 166.04 31.24 166.472C32.184 166.904 32.912 167.488 33.424 168.224C33.952 168.96 34.216 169.848 34.216 170.888C34.216 171.992 33.928 172.968 33.352 173.816C32.776 174.648 31.952 175.296 30.88 175.76C29.824 176.224 28.576 176.456 27.136 176.456ZM48.9479 176V158.48H52.3559V176H48.9479ZM37.4519 176V158.48H40.8599V176H37.4519ZM40.2359 168.728V165.728H49.5719V168.728H40.2359ZM55.0626 176L61.0386 158.48H66.6066L72.7506 176H69.2466L64.0386 160.808L65.2626 161.336H62.2626L63.5106 160.808L58.4706 176H55.0626ZM59.2386 171.344L60.3186 168.464H67.4226L68.4786 171.344H59.2386ZM75.5211 176V158.48H78.9291V176H75.5211ZM86.8772 176V161H90.2852V176H86.8772ZM81.8132 161.48V158.48H95.349V161.48H81.8132ZM109.686 176V158.48H113.094V176H109.686ZM98.19 176V158.48H101.598V176H98.19ZM100.974 168.728V165.728H110.31V168.728H100.974ZM115.8 176L121.776 158.48H127.344L133.488 176H129.984L124.776 160.808L126 161.336H123L124.248 160.808L119.208 176H115.8ZM119.976 171.344L121.056 168.464H128.16L129.216 171.344H119.976ZM136.211 176V158.48H141.803L149.171 173.168H149.963L149.483 173.6V158.48H152.699V176H147.083L139.715 161.312H138.899L139.379 160.88V176H136.211Z" fill="#F30909"/>
</g>
<defs>
<filter id="filter0_d_1420_75" x="-8" y="-7" width="203" height="221" filterUnits="userSpaceOnUse" color-interpolation-filters="sRGB">
<feFlood flood-opacity="0" result="BackgroundImageFix"/>
<feColorMatrix in="SourceAlpha" type="matrix" values="0 0 0 0 0 0 0 0 0 0 0 0 0 0 0 0 0 0 127 0" result="hardAlpha"/>
<feOffset dx="1" dy="2"/>
<feGaussianBlur stdDeviation="4.5"/>
<feComposite in2="hardAlpha" operator="out"/>
<feColorMatrix type="matrix" values="0 0 0 0 0 0 0 0 0 0 0 0 0 0 0 0 0 0 0.1 0"/>
<feBlend mode="normal" in2="BackgroundImageFix" result="effect1_dropShadow_1420_75"/>
<feBlend mode="normal" in="SourceGraphic" in2="effect1_dropShadow_1420_75" result="shape"/>
</filter>
<linearGradient id="paint0_linear_1420_75" x1="92.5" y1="0" x2="92.5" y2="203" gradientUnits="userSpaceOnUse">
<stop stop-color="#AB60AD"/>
<stop offset="1" stop-color="#42A7EA"/>
</linearGradient>
<clipPath id="clip0_1420_75">
<rect width="185" height="203" fill="white"/>
</clipPath>
</defs>
</svg>
