<svg width="185" height="193" viewBox="0 0 185 193" fill="none" xmlns="http://www.w3.org/2000/svg">
<g clip-path="url(#clip0_1420_50)">
<g filter="url(#filter0_d_1420_50)">
<path d="M178 0H7C3.13401 0 0 2.97291 0 6.64019V185.925C0 189.592 3.13401 192.565 7 192.565H178C181.866 192.565 185 189.592 185 185.925V6.64019C185 2.97291 181.866 0 178 0Z" fill="url(#paint0_linear_1420_50)"/>
</g>
<path d="M17.394 39.8412V27.9723H20.182V39.8412H17.394ZM24.925 39.8412L21.287 34.7776H24.347L28.155 39.8412H24.925ZM19.434 36.0677V33.9874H22.494C22.902 33.9874 23.2533 33.9122 23.548 33.7616C23.854 33.6004 24.0863 33.38 24.245 33.1005C24.415 32.8102 24.5 32.477 24.5 32.1007C24.5 31.7243 24.415 31.3965 24.245 31.117C24.0863 30.8267 23.854 30.6063 23.548 30.4558C23.2533 30.2945 22.902 30.2139 22.494 30.2139H19.434V27.9723H22.273C23.3043 27.9723 24.1997 28.1229 24.959 28.4239C25.7183 28.7142 26.302 29.1496 26.71 29.7301C27.118 30.3106 27.322 31.0417 27.322 31.9233V32.1813C27.322 33.0521 27.1123 33.7778 26.693 34.3583C26.285 34.9281 25.7013 35.3581 24.942 35.6484C24.194 35.928 23.3043 36.0677 22.273 36.0677H19.434ZM33.845 40.1476C33.0516 40.1476 32.349 40.0186 31.737 39.7606C31.1363 39.5026 30.632 39.1585 30.224 38.7285C29.8273 38.2877 29.5213 37.7986 29.306 37.261C29.102 36.7127 29 36.1537 29 35.5839V35.2614C29 34.6701 29.102 34.1057 29.306 33.5681C29.5213 33.0198 29.8273 32.5306 30.224 32.1007C30.6206 31.6707 31.1136 31.332 31.703 31.0847C32.3036 30.8267 32.9836 30.6977 33.743 30.6977C34.7403 30.6977 35.579 30.9127 36.259 31.3427C36.9503 31.762 37.4773 32.3157 37.84 33.0037C38.2026 33.681 38.384 34.4228 38.384 35.2291V36.0999H30.139V34.6325H36.735L35.851 35.3098C35.851 34.783 35.7716 34.3315 35.613 33.9552C35.4543 33.5788 35.2163 33.294 34.899 33.1005C34.593 32.8962 34.2076 32.7941 33.743 32.7941C33.267 32.7941 32.8646 32.8962 32.536 33.1005C32.2073 33.3047 31.958 33.6058 31.788 34.0035C31.618 34.3906 31.533 34.8689 31.533 35.4388C31.533 35.9655 31.6123 36.4279 31.771 36.8256C31.9296 37.2126 32.179 37.5136 32.519 37.7287C32.859 37.9437 33.301 38.0512 33.845 38.0512C34.3436 38.0512 34.7516 37.9599 35.069 37.7771C35.3863 37.5943 35.6016 37.3685 35.715 37.0998H38.214C38.078 37.691 37.8116 38.2179 37.415 38.6801C37.0183 39.1424 36.5196 39.5026 35.919 39.7606C35.3183 40.0186 34.627 40.1476 33.845 40.1476ZM44.4534 40.1476C43.6487 40.1476 42.946 40.024 42.3454 39.7767C41.756 39.5187 41.263 39.1746 40.8664 38.7446C40.4697 38.3146 40.175 37.8308 39.9824 37.2933C39.7897 36.745 39.6934 36.1806 39.6934 35.6V35.2936C39.6934 34.6916 39.7954 34.1164 39.9994 33.5681C40.2034 33.0091 40.5037 32.5145 40.9004 32.0845C41.297 31.6545 41.79 31.3159 42.3794 31.0686C42.98 30.8213 43.6657 30.6977 44.4364 30.6977C45.275 30.6977 46.0174 30.8535 46.6634 31.1653C47.3094 31.4663 47.825 31.891 48.2104 32.4393C48.5957 32.9876 48.811 33.6165 48.8564 34.3261H46.1874C46.142 33.9283 45.972 33.595 45.6774 33.3262C45.394 33.0467 44.9804 32.907 44.4364 32.907C43.983 32.907 43.6034 33.0144 43.2974 33.2295C43.0027 33.4445 42.7817 33.7401 42.6344 34.1164C42.487 34.4927 42.4134 34.9389 42.4134 35.4549C42.4134 35.928 42.4814 36.358 42.6174 36.745C42.7534 37.1213 42.9687 37.4169 43.2634 37.6319C43.5694 37.8362 43.966 37.9383 44.4534 37.9383C44.816 37.9383 45.122 37.8792 45.3714 37.7609C45.632 37.6319 45.836 37.4599 45.9834 37.2449C46.142 37.0191 46.2384 36.7611 46.2724 36.4708H48.9244C48.8904 37.2019 48.675 37.847 48.2784 38.406C47.8817 38.9543 47.3547 39.3843 46.6974 39.6961C46.04 39.9971 45.292 40.1476 44.4534 40.1476ZM51.1909 39.8412V31.0041H53.9109V39.8412H51.1909ZM49.9499 32.907V31.0041H53.9109V32.907H49.9499ZM52.2449 30.1333C51.7349 30.1333 51.3553 30.0097 51.1059 29.7624C50.8679 29.5043 50.7489 29.1818 50.7489 28.7948C50.7489 28.397 50.8679 28.0745 51.1059 27.8272C51.3553 27.5692 51.7349 27.4402 52.2449 27.4402C52.7549 27.4402 53.1289 27.5692 53.3669 27.8272C53.6163 28.0745 53.7409 28.397 53.7409 28.7948C53.7409 29.1818 53.6163 29.5043 53.3669 29.7624C53.1289 30.0097 52.7549 30.1333 52.2449 30.1333ZM60.7447 39.9541C59.804 39.9541 59.0447 39.8466 58.4667 39.6316C57.8887 39.4058 57.4637 39.0349 57.1917 38.5189C56.931 37.9921 56.8007 37.2826 56.8007 36.3902V28.6174H59.3337V36.487C59.3337 36.9062 59.447 37.2288 59.6737 37.4545C59.9117 37.6696 60.246 37.7771 60.6767 37.7771H62.0537V39.9541H60.7447ZM55.3897 32.8908V31.0041H62.0537V32.8908H55.3897ZM68.2016 40.1476C67.4082 40.1476 66.7056 40.0186 66.0936 39.7606C65.4929 39.5026 64.9886 39.1585 64.5806 38.7285C64.1839 38.2877 63.8779 37.7986 63.6626 37.261C63.4586 36.7127 63.3566 36.1537 63.3566 35.5839V35.2614C63.3566 34.6701 63.4586 34.1057 63.6626 33.5681C63.8779 33.0198 64.1839 32.5306 64.5806 32.1007C64.9772 31.6707 65.4702 31.332 66.0596 31.0847C66.6602 30.8267 67.3402 30.6977 68.0996 30.6977C69.0969 30.6977 69.9356 30.9127 70.6156 31.3427C71.3069 31.762 71.8339 32.3157 72.1966 33.0037C72.5592 33.681 72.7406 34.4228 72.7406 35.2291V36.0999H64.4956V34.6325H71.0916L70.2076 35.3098C70.2076 34.783 70.1282 34.3315 69.9696 33.9552C69.8109 33.5788 69.5729 33.294 69.2556 33.1005C68.9496 32.8962 68.5642 32.7941 68.0996 32.7941C67.6236 32.7941 67.2212 32.8962 66.8926 33.1005C66.5639 33.3047 66.3146 33.6058 66.1446 34.0035C65.9746 34.3906 65.8896 34.8689 65.8896 35.4388C65.8896 35.9655 65.9689 36.4279 66.1276 36.8256C66.2862 37.2126 66.5356 37.5136 66.8756 37.7287C67.2156 37.9437 67.6576 38.0512 68.2016 38.0512C68.7002 38.0512 69.1082 37.9599 69.4256 37.7771C69.7429 37.5943 69.9582 37.3685 70.0716 37.0998H72.5706C72.4346 37.691 72.1682 38.2179 71.7716 38.6801C71.3749 39.1424 70.8762 39.5026 70.2756 39.7606C69.6749 40.0186 68.9836 40.1476 68.2016 40.1476ZM86.8163 43.3567C86.0456 43.3567 85.377 43.2707 84.8103 43.0987C84.255 42.9267 83.8186 42.6149 83.5013 42.1634C83.1953 41.7118 83.0423 41.0668 83.0423 40.2282V38.4221H85.6433V40.3411C85.6433 40.6529 85.734 40.8894 85.9153 41.0507C86.108 41.2227 86.3686 41.3087 86.6973 41.3087H88.5503V43.3567H86.8163ZM84.3853 40.1476C83.2633 40.1476 82.283 39.9648 81.4443 39.5993C80.617 39.223 79.9313 38.7339 79.3873 38.1318C78.8433 37.519 78.4353 36.8579 78.1633 36.1483C77.9026 35.4388 77.7723 34.7561 77.7723 34.1003V33.7455C77.7723 33.0144 77.9083 32.2942 78.1803 31.5846C78.4636 30.8643 78.883 30.2139 79.4383 29.6333C79.9936 29.0528 80.685 28.5906 81.5123 28.2465C82.3396 27.8917 83.2973 27.7143 84.3853 27.7143C85.4733 27.7143 86.431 27.8917 87.2583 28.2465C88.0856 28.5906 88.777 29.0528 89.3323 29.6333C89.8876 30.2139 90.307 30.8643 90.5903 31.5846C90.8736 32.2942 91.0153 33.0144 91.0153 33.7455V34.1003C91.0153 34.7561 90.8793 35.4388 90.6073 36.1483C90.3353 36.8579 89.9273 37.519 89.3833 38.1318C88.8393 38.7339 88.148 39.223 87.3093 39.5993C86.482 39.9648 85.5073 40.1476 84.3853 40.1476ZM84.3853 37.6803C84.9746 37.6803 85.5016 37.5835 85.9663 37.39C86.4423 37.1965 86.8446 36.9278 87.1733 36.5837C87.5133 36.2397 87.7683 35.8419 87.9383 35.3904C88.1083 34.9389 88.1933 34.4551 88.1933 33.939C88.1933 33.3907 88.1026 32.8908 87.9213 32.4393C87.7513 31.977 87.4963 31.5792 87.1563 31.246C86.8276 30.9019 86.431 30.6386 85.9663 30.4558C85.5016 30.273 84.9746 30.1816 84.3853 30.1816C83.796 30.1816 83.269 30.273 82.8043 30.4558C82.3396 30.6386 81.9373 30.9019 81.5973 31.246C81.2686 31.5792 81.0193 31.977 80.8493 32.4393C80.6793 32.8908 80.5943 33.3907 80.5943 33.939C80.5943 34.4551 80.6793 34.9389 80.8493 35.3904C81.0193 35.8419 81.2686 36.2397 81.5973 36.5837C81.9373 36.9278 82.3396 37.1965 82.8043 37.39C83.269 37.5835 83.796 37.6803 84.3853 37.6803ZM96.205 40.1154C95.128 40.1154 94.301 39.7874 93.723 39.1317C93.145 38.4651 92.856 37.4653 92.856 36.1322V31.0041H95.576V36.2612C95.576 36.7343 95.717 37.1105 96.001 37.39C96.284 37.6696 96.664 37.8093 97.14 37.8093C97.627 37.8093 98.024 37.6642 98.33 37.3739C98.636 37.0836 98.789 36.6912 98.789 36.1967V31.0041H101.509V39.8412H99.35V36.1161H99.537C99.537 37.0084 99.412 37.7555 99.163 38.3576C98.925 38.9489 98.568 39.3897 98.092 39.68C97.616 39.9702 97.026 40.1154 96.324 40.1154H96.205ZM104.102 39.8412V31.0041H106.261V34.7937H106.21C106.21 33.5466 106.487 32.5844 107.043 31.9071C107.609 31.2298 108.425 30.8912 109.491 30.8912H109.848V33.1166H109.168C108.42 33.1166 107.842 33.3101 107.434 33.6971C107.026 34.0734 106.822 34.6217 106.822 35.342V39.8412H104.102ZM116.903 39.8412V37.2288H116.444V34.3906C116.444 33.939 116.33 33.6004 116.104 33.3746C115.877 33.1488 115.514 33.036 115.016 33.036C114.766 33.036 114.438 33.0414 114.03 33.0521C113.622 33.0628 113.202 33.0789 112.772 33.1005C112.341 33.122 111.95 33.1434 111.599 33.165V30.9879C111.859 30.9664 112.165 30.945 112.517 30.9234C112.868 30.9019 113.231 30.8858 113.605 30.8751C113.979 30.8643 114.33 30.8589 114.659 30.8589C115.611 30.8589 116.41 30.9879 117.056 31.246C117.713 31.504 118.212 31.8964 118.552 32.4232C118.892 32.9392 119.062 33.6058 119.062 34.4228V39.8412H116.903ZM113.928 40.067C113.259 40.067 112.67 39.9541 112.16 39.7283C111.661 39.5026 111.27 39.18 110.987 38.7608C110.703 38.3308 110.562 37.82 110.562 37.2288C110.562 36.5837 110.737 36.057 111.089 35.6484C111.44 35.2291 111.933 34.9227 112.568 34.7292C113.202 34.525 113.933 34.4228 114.761 34.4228H116.75V35.858H114.744C114.268 35.858 113.899 35.9709 113.639 36.1967C113.389 36.4117 113.265 36.7073 113.265 37.0836C113.265 37.4384 113.389 37.7287 113.639 37.9545C113.899 38.1695 114.268 38.277 114.744 38.277C115.05 38.277 115.322 38.2286 115.56 38.1318C115.809 38.0244 116.013 37.847 116.172 37.5997C116.33 37.3524 116.421 37.0084 116.444 36.5676L117.09 37.2126C117.033 37.8254 116.874 38.3415 116.614 38.7608C116.364 39.18 116.013 39.5026 115.56 39.7283C115.118 39.9541 114.574 40.067 113.928 40.067ZM121.454 39.8412V31.0041H123.613V34.7937H123.46C123.46 33.8907 123.579 33.1381 123.817 32.5361C124.067 31.934 124.441 31.4824 124.939 31.1815C125.438 30.8805 126.044 30.7299 126.758 30.7299H126.877C127.965 30.7299 128.793 31.0686 129.359 31.7459C129.937 32.4125 130.226 33.4284 130.226 34.7937V39.8412H127.506V34.6486C127.506 34.1755 127.359 33.7885 127.064 33.4875C126.77 33.1865 126.373 33.036 125.874 33.036C125.364 33.036 124.951 33.1918 124.633 33.5036C124.327 33.8046 124.174 34.2025 124.174 34.697V39.8412H121.454ZM17.394 59.7618V47.8929H20.182V59.7618H17.394ZM24.925 59.7618L21.287 54.6982H24.347L28.155 59.7618H24.925ZM19.434 55.9883V53.908H22.494C22.902 53.908 23.2533 53.8327 23.548 53.6822C23.854 53.5209 24.0863 53.3006 24.245 53.021C24.415 52.7308 24.5 52.3975 24.5 52.0212C24.5 51.6449 24.415 51.3171 24.245 51.0375C24.0863 50.7472 23.854 50.5269 23.548 50.3763C23.2533 50.2151 22.902 50.1345 22.494 50.1345H19.434V47.8929H22.273C23.3043 47.8929 24.1997 48.0435 24.959 48.3444C25.7183 48.6347 26.302 49.0701 26.71 49.6507C27.118 50.2312 27.322 50.9623 27.322 51.8438V52.1018C27.322 52.9727 27.1123 53.6983 26.693 54.2789C26.285 54.8487 25.7013 55.2787 24.942 55.569C24.194 55.8485 23.3043 55.9883 22.273 55.9883H19.434ZM33.845 60.0682C33.0516 60.0682 32.349 59.9392 31.737 59.6811C31.1363 59.4231 30.632 59.0791 30.224 58.6491C29.8273 58.2083 29.5213 57.7192 29.306 57.1816C29.102 56.6333 29 56.0743 29 55.5045V55.1819C29 54.5907 29.102 54.0263 29.306 53.4887C29.5213 52.9404 29.8273 52.4512 30.224 52.0212C30.6206 51.5912 31.1136 51.2526 31.703 51.0053C32.3036 50.7472 32.9836 50.6182 33.743 50.6182C34.7403 50.6182 35.579 50.8333 36.259 51.2633C36.9503 51.6826 37.4773 52.2363 37.84 52.9243C38.2026 53.6016 38.384 54.3434 38.384 55.1497V56.0205H30.139V54.553H36.735L35.851 55.2303C35.851 54.7036 35.7716 54.252 35.613 53.8757C35.4543 53.4994 35.2163 53.2145 34.899 53.021C34.593 52.8168 34.2076 52.7146 33.743 52.7146C33.267 52.7146 32.8646 52.8168 32.536 53.021C32.2073 53.2253 31.958 53.5264 31.788 53.9241C31.618 54.3111 31.533 54.7895 31.533 55.3593C31.533 55.8861 31.6123 56.3484 31.771 56.7462C31.9296 57.1332 32.179 57.4342 32.519 57.6492C32.859 57.8643 33.301 57.9718 33.845 57.9718C34.3436 57.9718 34.7516 57.8804 35.069 57.6976C35.3863 57.5148 35.6016 57.2891 35.715 57.0203H38.214C38.078 57.6116 37.8116 58.1384 37.415 58.6007C37.0183 59.0629 36.5196 59.4231 35.919 59.6811C35.3183 59.9392 34.627 60.0682 33.845 60.0682ZM44.4534 60.0682C43.6487 60.0682 42.946 59.9446 42.3454 59.6973C41.756 59.4392 41.263 59.0952 40.8664 58.6652C40.4697 58.2352 40.175 57.7514 39.9824 57.2138C39.7897 56.6656 39.6934 56.1011 39.6934 55.5206V55.2142C39.6934 54.6121 39.7954 54.037 39.9994 53.4887C40.2034 52.9297 40.5037 52.4351 40.9004 52.0051C41.297 51.5751 41.79 51.2364 42.3794 50.9891C42.98 50.7418 43.6657 50.6182 44.4364 50.6182C45.275 50.6182 46.0174 50.7741 46.6634 51.0859C47.3094 51.3869 47.825 51.8116 48.2104 52.3599C48.5957 52.9081 48.811 53.5371 48.8564 54.2466H46.1874C46.142 53.8489 45.972 53.5155 45.6774 53.2468C45.394 52.9672 44.9804 52.8275 44.4364 52.8275C43.983 52.8275 43.6034 52.935 43.2974 53.15C43.0027 53.3651 42.7817 53.6607 42.6344 54.037C42.487 54.4133 42.4134 54.8594 42.4134 55.3755C42.4134 55.8485 42.4814 56.2785 42.6174 56.6655C42.7534 57.0419 42.9687 57.3374 43.2634 57.5525C43.5694 57.7567 43.966 57.8589 44.4534 57.8589C44.816 57.8589 45.122 57.7998 45.3714 57.6815C45.632 57.5525 45.836 57.3805 45.9834 57.1655C46.142 56.9397 46.2384 56.6817 46.2724 56.3914H48.9244C48.8904 57.1225 48.675 57.7675 48.2784 58.3265C47.8817 58.8748 47.3547 59.3048 46.6974 59.6166C46.04 59.9176 45.292 60.0682 44.4534 60.0682ZM50.7489 59.7618V47.9897H53.4689V54.7788H53.0609C53.0609 53.8864 53.1799 53.1339 53.4179 52.5211C53.6559 51.9083 54.0073 51.4461 54.4719 51.1343C54.9366 50.8117 55.5203 50.6505 56.2229 50.6505H56.3419C57.3733 50.6505 58.1609 50.9999 58.7049 51.6987C59.2489 52.3867 59.5209 53.3973 59.5209 54.7304V59.7618H56.8009V54.5691C56.8009 54.0854 56.6479 53.6983 56.3419 53.4081C56.0473 53.1071 55.6563 52.9565 55.1689 52.9565C54.6589 52.9565 54.2453 53.1124 53.9279 53.4242C53.6219 53.736 53.4689 54.1499 53.4689 54.6659V59.7618H50.7489ZM67.5508 59.7618V57.1493H67.0918V54.3111C67.0918 53.8596 66.9784 53.5209 66.7518 53.2952C66.5251 53.0694 66.1624 52.9565 65.6638 52.9565C65.4144 52.9565 65.0858 52.9619 64.6778 52.9727C64.2698 52.9834 63.8504 52.9995 63.4198 53.021C62.9891 53.0426 62.5981 53.064 62.2468 53.0855V50.9085C62.5074 50.887 62.8134 50.8655 63.1648 50.844C63.5161 50.8225 63.8788 50.8063 64.2528 50.7956C64.6268 50.7849 64.9781 50.7795 65.3068 50.7795C66.2588 50.7795 67.0578 50.9085 67.7038 51.1665C68.3611 51.4245 68.8598 51.817 69.1998 52.3437C69.5398 52.8598 69.7098 53.5264 69.7098 54.3434V59.7618H67.5508ZM64.5758 59.9875C63.9071 59.9875 63.3178 59.8747 62.8078 59.6489C62.3091 59.4231 61.9181 59.1006 61.6348 58.6813C61.3514 58.2513 61.2098 57.7406 61.2098 57.1493C61.2098 56.5043 61.3854 55.9775 61.7368 55.569C62.0881 55.1497 62.5811 54.8433 63.2158 54.6498C63.8504 54.4455 64.5814 54.3434 65.4088 54.3434H67.3978V55.7786H65.3918C64.9158 55.7786 64.5474 55.8915 64.2868 56.1173C64.0374 56.3323 63.9128 56.6279 63.9128 57.0042C63.9128 57.359 64.0374 57.6492 64.2868 57.875C64.5474 58.0901 64.9158 58.1975 65.3918 58.1975C65.6978 58.1975 65.9698 58.1492 66.2078 58.0524C66.4571 57.9449 66.6611 57.7675 66.8198 57.5202C66.9784 57.2729 67.0691 56.929 67.0918 56.4882L67.7378 57.1332C67.6811 57.746 67.5224 58.262 67.2618 58.6813C67.0124 59.1006 66.6611 59.4231 66.2078 59.6489C65.7658 59.8747 65.2218 59.9875 64.5758 59.9875ZM72.1025 59.7618V50.9246H74.2615V54.7143H74.2105C74.2105 53.4672 74.4882 52.505 75.0435 51.8277C75.6102 51.1504 76.4262 50.8117 77.4915 50.8117H77.8485V53.0372H77.1685C76.4205 53.0372 75.8425 53.2307 75.4345 53.6177C75.0265 53.994 74.8225 54.5423 74.8225 55.2626V59.7618H72.1025ZM82.965 63.2773C82.5117 63.2773 82.047 63.2611 81.571 63.2289C81.095 63.1966 80.6587 63.1537 80.262 63.0999V60.9229C80.6587 60.9766 81.095 61.0196 81.571 61.0519C82.0583 61.0948 82.5003 61.1164 82.897 61.1164C83.6337 61.1164 84.2287 61.0357 84.682 60.8745C85.1467 60.7132 85.4867 60.4659 85.702 60.1327C85.9173 59.8101 86.025 59.3909 86.025 58.8748V57.1171L86.518 56.085C86.4953 56.8698 86.331 57.5418 86.025 58.1008C85.7303 58.6598 85.3167 59.0899 84.784 59.3909C84.2513 59.6811 83.6167 59.8263 82.88 59.8263C82.2453 59.8263 81.6673 59.7188 81.146 59.5038C80.636 59.278 80.1997 58.9662 79.837 58.5684C79.4743 58.1707 79.1967 57.7083 79.004 57.1816C78.8113 56.644 78.715 56.0635 78.715 55.44V55.0691C78.715 54.4455 78.817 53.865 79.021 53.3274C79.225 52.7899 79.5197 52.3222 79.905 51.9245C80.2903 51.5267 80.7493 51.2203 81.282 51.0053C81.8147 50.7795 82.404 50.6666 83.05 50.6666C83.798 50.6666 84.444 50.8225 84.988 51.1343C85.5433 51.4461 85.9797 51.9029 86.297 52.505C86.6143 53.1071 86.7843 53.8327 86.807 54.682L86.433 54.7788V50.9246H88.592V58.7136C88.592 59.7994 88.388 60.6756 87.98 61.3421C87.572 62.0087 86.9487 62.4978 86.11 62.8096C85.2827 63.1214 84.2343 63.2773 82.965 63.2773ZM83.73 57.6492C84.1493 57.6492 84.529 57.5632 84.869 57.3912C85.209 57.2084 85.4753 56.9504 85.668 56.6172C85.872 56.2839 85.974 55.8808 85.974 55.4077V54.94C85.974 54.4778 85.8663 54.0908 85.651 53.779C85.447 53.4564 85.175 53.2145 84.835 53.0533C84.495 52.8813 84.1323 52.7953 83.747 52.7953C83.2937 52.7953 82.8913 52.8974 82.54 53.1017C82.1887 53.3059 81.9167 53.5909 81.724 53.9564C81.5313 54.3218 81.435 54.7519 81.435 55.2464C81.435 55.7518 81.5313 56.1872 81.724 56.5527C81.928 56.9074 82.2 57.1816 82.54 57.3751C82.8913 57.5579 83.288 57.6492 83.73 57.6492ZM95.299 60.0682C94.506 60.0682 93.803 59.9392 93.191 59.6811C92.591 59.4231 92.086 59.0791 91.6783 58.6491C91.2816 58.2083 90.9756 57.7192 90.7603 57.1816C90.5563 56.6333 90.4543 56.0743 90.4543 55.5045V55.1819C90.4543 54.5907 90.5563 54.0263 90.7603 53.4887C90.9756 52.9404 91.2816 52.4512 91.6783 52.0212C92.075 51.5912 92.568 51.2526 93.157 51.0053C93.758 50.7472 94.438 50.6182 95.197 50.6182C96.195 50.6182 97.033 50.8333 97.713 51.2633C98.405 51.6826 98.932 52.2363 99.294 52.9243C99.657 53.6016 99.838 54.3434 99.838 55.1497V56.0205H91.5933V54.553H98.189L97.305 55.2303C97.305 54.7036 97.226 54.252 97.067 53.8757C96.909 53.4994 96.671 53.2145 96.353 53.021C96.047 52.8168 95.662 52.7146 95.197 52.7146C94.721 52.7146 94.319 52.8168 93.99 53.021C93.662 53.2253 93.412 53.5264 93.242 53.9241C93.072 54.3111 92.987 54.7895 92.987 55.3593C92.987 55.8861 93.067 56.3484 93.225 56.7462C93.384 57.1332 93.633 57.4342 93.973 57.6492C94.313 57.8643 94.755 57.9718 95.299 57.9718C95.798 57.9718 96.206 57.8804 96.523 57.6976C96.841 57.5148 97.056 57.2891 97.169 57.0203H99.668C99.532 57.6116 99.266 58.1384 98.869 58.6007C98.473 59.0629 97.974 59.4231 97.373 59.6811C96.773 59.9392 96.081 60.0682 95.299 60.0682ZM17.139 83.1817V80.9886H19.077C19.3717 80.9886 19.621 80.9509 19.825 80.8757C20.029 80.8112 20.1933 80.6983 20.318 80.537C20.4427 80.3758 20.5447 80.1554 20.624 79.8758L22.919 70.8452H25.503L22.902 80.3919C22.7207 81.0799 22.4657 81.6282 22.137 82.0368C21.8197 82.4453 21.389 82.7356 20.845 82.9076C20.3123 83.0904 19.6323 83.1817 18.805 83.1817H17.139ZM20.063 79.4888V77.473H22.035V79.4888H20.063ZM18.941 79.4888L16.085 70.8452H18.822L21.525 79.4888H18.941ZM31.3445 79.9887C30.5285 79.9887 29.8032 79.8704 29.1685 79.634C28.5338 79.3867 27.9955 79.0534 27.5535 78.6341C27.1228 78.2148 26.7942 77.7365 26.5675 77.1989C26.3408 76.6506 26.2275 76.0755 26.2275 75.4734V75.1025C26.2275 74.4897 26.3408 73.9092 26.5675 73.3609C26.8055 72.8019 27.1455 72.3127 27.5875 71.8934C28.0408 71.4741 28.5848 71.1462 29.2195 70.9097C29.8542 70.6624 30.5625 70.5388 31.3445 70.5388C32.1492 70.5388 32.8632 70.6624 33.4865 70.9097C34.1212 71.1462 34.6595 71.4741 35.1015 71.8934C35.5435 72.3127 35.8835 72.8019 36.1215 73.3609C36.3595 73.9092 36.4785 74.4897 36.4785 75.1025V75.4734C36.4785 76.0755 36.3652 76.6506 36.1385 77.1989C35.9118 77.7365 35.5775 78.2148 35.1355 78.6341C34.7048 79.0534 34.1722 79.3867 33.5375 79.634C32.9028 79.8704 32.1718 79.9887 31.3445 79.9887ZM31.3445 77.8117C31.8772 77.8117 32.3192 77.7042 32.6705 77.4892C33.0218 77.2741 33.2882 76.9731 33.4695 76.5861C33.6622 76.1991 33.7585 75.7691 33.7585 75.296C33.7585 74.7907 33.6622 74.35 33.4695 73.9737C33.2768 73.5866 32.9992 73.2802 32.6365 73.0545C32.2852 72.8287 31.8545 72.7158 31.3445 72.7158C30.8458 72.7158 30.4152 72.8287 30.0525 73.0545C29.6898 73.2802 29.4122 73.5866 29.2195 73.9737C29.0382 74.35 28.9475 74.7907 28.9475 75.296C28.9475 75.7691 29.0382 76.1991 29.2195 76.5861C29.4008 76.9731 29.6728 77.2741 30.0355 77.4892C30.3982 77.7042 30.8345 77.8117 31.3445 77.8117ZM41.6068 79.9565C40.5301 79.9565 39.7028 79.6285 39.1248 78.9728C38.5468 78.3062 38.2578 77.3064 38.2578 75.9733V70.8452H40.9778V76.1023C40.9778 76.5754 41.1194 76.9516 41.4028 77.2312C41.6861 77.5107 42.0658 77.6504 42.5418 77.6504C43.0291 77.6504 43.4258 77.5053 43.7318 77.215C44.0378 76.9248 44.1908 76.5323 44.1908 76.0378V70.8452H46.9108V79.6823H44.7518V75.9572H44.9388C44.9388 76.8495 44.8141 77.5966 44.5648 78.1987C44.3268 78.79 43.9698 79.2308 43.4938 79.5211C43.0178 79.8113 42.4284 79.9565 41.7258 79.9565H41.6068ZM49.5038 79.6823V70.8452H51.6628V74.6348H51.6118C51.6118 73.3877 51.8895 72.4256 52.4448 71.7483C53.0115 71.071 53.8275 70.7323 54.8928 70.7323H55.2498V72.9577H54.5698C53.8218 72.9577 53.2438 73.1512 52.8358 73.5383C52.4278 73.9146 52.2238 74.4629 52.2238 75.1831V79.6823H49.5038ZM60.5514 79.6823V67.9102H63.2714V79.6823H60.5514ZM62.9314 79.6823V77.4892H68.3544V79.6823H62.9314ZM62.9314 74.7961V72.6029H67.9634V74.7961H62.9314ZM62.9314 70.1034V67.9102H68.2354V70.1034H62.9314ZM70.5772 79.6823V70.8452H72.7362V74.651H72.5832C72.5832 73.7479 72.7022 72.9954 72.9402 72.3933C73.1782 71.7912 73.5352 71.3397 74.0112 71.0387C74.4872 70.7269 75.0708 70.571 75.7622 70.571H75.8812C76.5838 70.571 77.1675 70.7269 77.6322 71.0387C78.1082 71.3397 78.4652 71.7912 78.7032 72.3933C78.9525 72.9954 79.0772 73.7479 79.0772 74.651H78.4142C78.4142 73.7479 78.5332 72.9954 78.7712 72.3933C79.0205 71.7912 79.3832 71.3397 79.8592 71.0387C80.3352 70.7269 80.9188 70.571 81.6102 70.571H81.7292C82.4318 70.571 83.0212 70.7269 83.4972 71.0387C83.9845 71.3397 84.3528 71.7912 84.6022 72.3933C84.8515 72.9954 84.9762 73.7479 84.9762 74.651V79.6823H82.2562V74.5058C82.2562 74.022 82.1202 73.6296 81.8482 73.3286C81.5875 73.0276 81.2135 72.8771 80.7262 72.8771C80.2388 72.8771 79.8535 73.0329 79.5702 73.3447C79.2868 73.6457 79.1452 74.0489 79.1452 74.5542V79.6823H76.4082V74.5058C76.4082 74.022 76.2722 73.6296 76.0002 73.3286C75.7395 73.0276 75.3712 72.8771 74.8952 72.8771C74.3965 72.8771 74.0055 73.0329 73.7222 73.3447C73.4388 73.6457 73.2972 74.0489 73.2972 74.5542V79.6823H70.5772ZM93.007 79.6823V77.0699H92.548V74.2317C92.548 73.7802 92.435 73.4415 92.208 73.2157C91.9813 72.99 91.6186 72.8771 91.1199 72.8771C90.8706 72.8771 90.5419 72.8825 90.1339 72.8932C89.7259 72.9039 89.3066 72.9201 88.8759 72.9416C88.4453 72.9631 88.0543 72.9846 87.7029 73.0061V70.8291C87.9636 70.8075 88.2696 70.7861 88.6209 70.7646C88.9723 70.743 89.3349 70.7269 89.7089 70.7162C90.0829 70.7055 90.4343 70.7001 90.7629 70.7001C91.7149 70.7001 92.514 70.8291 93.16 71.0871C93.817 71.3451 94.316 71.7375 94.656 72.2643C94.996 72.7803 95.166 73.4469 95.166 74.2639V79.6823H93.007ZM90.0319 79.9081C89.3633 79.9081 88.7739 79.7952 88.2639 79.5694C87.7653 79.3437 87.3743 79.0212 87.0909 78.6019C86.8076 78.1719 86.6659 77.6612 86.6659 77.0699C86.6659 76.4248 86.8416 75.8981 87.1929 75.4895C87.5443 75.0703 88.0373 74.7639 88.6719 74.5703C89.3066 74.3661 90.0376 74.2639 90.8649 74.2639H92.854V75.6992H90.8479C90.3719 75.6992 90.0036 75.812 89.7429 76.0378C89.4936 76.2529 89.3689 76.5485 89.3689 76.9248C89.3689 77.2795 89.4936 77.5698 89.7429 77.7956C90.0036 78.0106 90.3719 78.1181 90.8479 78.1181C91.1539 78.1181 91.4259 78.0697 91.6639 77.973C91.9133 77.8655 92.117 77.6881 92.276 77.4408C92.435 77.1935 92.525 76.8495 92.548 76.4087L93.194 77.0538C93.137 77.6666 92.979 78.1826 92.718 78.6019C92.469 79.0212 92.117 79.3437 91.6639 79.5694C91.2219 79.7952 90.6779 79.9081 90.0319 79.9081ZM97.559 79.6823V70.8452H99.718V74.6348H99.565C99.565 73.7318 99.684 72.9793 99.922 72.3772C100.171 71.7751 100.545 71.3236 101.044 71.0226C101.542 70.7216 102.149 70.571 102.863 70.571H102.982C104.07 70.571 104.897 70.9097 105.464 71.587C106.042 72.2536 106.331 73.2695 106.331 74.6348V79.6823H103.611V74.4897C103.611 74.0166 103.463 73.6296 103.169 73.3286C102.874 73.0276 102.477 72.8771 101.979 72.8771C101.469 72.8771 101.055 73.0329 100.738 73.3447C100.432 73.6457 100.279 74.0436 100.279 74.5381V79.6823H97.559ZM108.802 75.6992V67.9102H111.59V75.6992H108.802ZM108.598 79.6823V77.086H111.794V79.6823H108.598Z" fill="#C15151"/>
<path d="M68.5579 156.609L89.1052 163.127L64.1875 169.46L66.8961 156.609H68.5579Z" fill="#FFAF7A"/>
<path d="M70.7503 121.401L61.563 152.529L97.002 161.536L132.437 152.529L123.25 121.401L116.687 122.648L97.002 125.128L77.3083 122.648L70.7503 121.401Z" fill="#FFC6A0"/>
<path d="M118.497 122.309L116.687 122.648L115.992 122.737L121.94 145.316H124.564L118.497 122.309ZM94.373 124.794V158.171L62.3022 150.021L61.5581 152.53L97.003 161.536V125.132L94.373 124.794ZM125.447 156.605L104.895 163.127L129.813 169.46L127.104 156.61L125.447 156.605ZM122.486 150.299L121.171 145.311H118.77L119.862 150.299H122.486Z" fill="#FFAF7A"/>
<path d="M99.6172 124.794V158.171L131.688 150.021L132.432 152.529L96.9932 161.536V125.132L99.6172 124.794Z" fill="#FFAF7A"/>
<path d="M57.7135 153.131C57.8022 152.815 57.9557 152.519 58.1654 152.26C58.3751 152 58.6368 151.782 58.9355 151.618C59.2341 151.455 59.5639 151.349 59.9059 151.306C60.2478 151.264 60.5952 151.286 60.9281 151.372L130.502 169.056C130.835 169.14 131.147 169.286 131.421 169.485C131.694 169.683 131.924 169.932 132.096 170.215C132.269 170.497 132.381 170.809 132.426 171.134C132.471 171.458 132.449 171.787 132.36 172.103C132.271 172.418 132.117 172.715 131.908 172.974C131.698 173.234 131.437 173.451 131.139 173.615C130.84 173.778 130.511 173.885 130.169 173.928C129.828 173.971 129.481 173.949 129.148 173.865L59.5639 156.181C59.2306 156.097 58.9182 155.951 58.6444 155.752C58.3706 155.553 58.141 155.305 57.9686 155.022C57.7962 154.738 57.6845 154.426 57.6399 154.102C57.5953 153.777 57.6236 153.447 57.7135 153.131Z" fill="#EC5F00"/>
<path d="M57.6489 154.05C57.763 155.038 58.4922 155.903 59.5687 156.176L129.143 173.866C129.762 174.027 130.422 173.967 130.997 173.698C131.573 173.428 132.024 172.967 132.265 172.403C132.506 171.839 132.52 171.211 132.305 170.637C132.09 170.063 131.66 169.585 131.097 169.292C131.145 169.693 131.088 170.1 130.933 170.476C130.777 170.853 130.526 171.188 130.203 171.452C129.88 171.715 129.494 171.9 129.078 171.99C128.663 172.081 128.23 172.073 127.818 171.969L58.2442 154.285C58.0364 154.23 57.8364 154.151 57.6489 154.05Z" fill="#C44F00"/>
<path d="M74.694 145.316L73.3794 150.294L89.219 151.127L97.002 151.541L104.781 151.127L120.625 150.294L119.311 145.316H74.694Z" fill="#FFCA28"/>
<path d="M111.438 150.741L114.067 150.572V145.316H111.438" fill="#ECB200"/>
<path d="M74.694 145.316L74.0342 147.805H91.7489C94.2 147.805 96.228 149.386 96.809 151.532L97.002 151.541L97.186 151.532C97.474 150.465 98.128 149.52 99.045 148.845C99.962 148.17 101.09 147.804 102.251 147.805H119.966L119.311 145.311L74.694 145.316Z" fill="#ECB200"/>
<path d="M104.875 145.316V154.03L108.814 151.537L112.753 154.03V145.316H104.875Z" fill="#EC5F00"/>
<path d="M102.251 120.413H116.687L123.25 145.316H102.251C99.344 145.316 97.003 147.536 97.003 150.294C97.003 147.536 94.661 145.316 91.7492 145.316H70.7505L77.3135 120.413H91.7492C94.661 120.413 97.003 122.634 97.003 125.391C97.003 122.634 99.344 120.413 102.251 120.413Z" fill="#E4EFF8"/>
<path d="M71.4102 142.826L70.7554 145.316H91.7492C94.661 145.316 97.003 147.536 97.003 150.294C97.003 147.536 99.344 145.316 102.251 145.316H123.25L122.595 142.821H102.251C99.344 142.821 97.003 145.047 97.003 147.805C97.003 145.047 94.661 142.826 91.7492 142.826H71.4102ZM77.3135 120.413L76.6636 122.897L91.7492 122.902C94.661 122.902 97.003 125.123 97.003 127.885C97.003 125.123 99.344 122.902 102.251 122.902L117.342 122.897L116.687 120.413H102.251C99.344 120.413 97.003 122.634 97.003 125.391C97.003 122.634 94.661 120.413 91.7492 120.413H77.3135Z" fill="#C4DCF0"/>
<path d="M98.312 160.877L88.1724 163.456L98.312 166.03L108.452 163.456L98.312 160.877Z" fill="#C44F00"/>
<path d="M136.286 153.131C136.198 152.815 136.044 152.519 135.834 152.26C135.625 152 135.363 151.782 135.064 151.618C134.766 151.455 134.436 151.349 134.094 151.306C133.752 151.264 133.405 151.286 133.072 151.372L63.4976 169.056C63.1647 169.141 62.8526 169.287 62.5792 169.486C62.3058 169.684 62.0764 169.933 61.9042 170.217C61.7319 170.499 61.6201 170.812 61.5751 171.136C61.5302 171.46 61.553 171.789 61.6423 172.105C61.7315 172.421 61.8854 172.717 62.0953 172.976C62.3051 173.236 62.5668 173.453 62.8653 173.616C63.1638 173.78 63.4933 173.887 63.835 173.928C64.1767 173.971 64.5239 173.95 64.8568 173.865L134.431 156.181C134.764 156.097 135.077 155.951 135.351 155.752C135.624 155.553 135.854 155.305 136.026 155.022C136.199 154.738 136.31 154.426 136.355 154.102C136.4 153.777 136.376 153.447 136.286 153.131Z" fill="#EC5F00"/>
<path d="M133.598 151.292C133.42 151.301 133.244 151.328 133.072 151.372L63.4976 169.056C62.983 169.185 62.5223 169.46 62.1767 169.845C61.8311 170.229 61.6171 170.704 61.5633 171.206C61.5094 171.709 61.6182 172.214 61.8751 172.657C62.1321 173.099 62.525 173.457 63.0015 173.682C62.9569 173.574 62.9073 173.465 62.8775 173.353C62.7876 173.037 62.7642 172.707 62.8089 172.382C62.8535 172.059 62.9652 171.746 63.1376 171.462C63.3099 171.178 63.5396 170.931 63.8134 170.732C64.0871 170.532 64.3996 170.387 64.7328 170.303L134.307 152.619C134.926 152.464 135.583 152.532 136.152 152.807C135.944 152.334 135.586 151.936 135.129 151.664C134.671 151.392 134.136 151.263 133.598 151.292Z" fill="#C44F00"/>
<path d="M81.252 125.396C79.5008 125.396 79.5008 127.885 81.252 127.885H91.7687C93.52 127.885 93.52 125.391 91.7687 125.391L81.252 125.396ZM102.236 125.396C100.485 125.396 100.485 127.885 102.236 127.885H112.753C114.504 127.885 114.504 125.391 112.753 125.391L102.236 125.396ZM79.9374 131.622C78.1912 131.622 78.1912 134.111 79.9374 134.111H91.7687C93.52 134.111 93.52 131.617 91.7687 131.617L79.9374 131.622ZM102.256 131.622C100.505 131.622 100.505 134.111 102.256 134.111H114.062C115.813 134.111 115.813 131.617 114.062 131.617L102.256 131.622ZM78.6327 137.838C76.8816 137.838 76.8816 140.332 78.6327 140.332H91.7538C93.5 140.332 93.5 137.838 91.7538 137.838H78.6327ZM102.256 137.838C100.505 137.838 100.505 140.332 102.256 140.332H115.372C117.123 140.332 117.123 137.838 115.372 137.838H102.256Z" fill="#C4DCF0"/>
<path d="M93.718 99.2508C91.9078 99.2508 90.4395 100.71 90.4395 102.517C90.4395 107.029 97.002 110.14 97.002 110.14C97.002 110.14 103.571 107.029 103.566 102.517C103.566 100.71 102.092 99.2461 100.282 99.2461C98.099 99.2461 97.002 101.425 97.002 101.425C97.002 101.425 95.911 99.2508 93.718 99.2508Z" fill="#EC5F00"/>
<path d="M100.282 99.2507C99.9842 99.2507 99.7112 99.2887 99.4532 99.3589C100.173 99.5543 100.805 99.9688 101.251 100.539C101.698 101.109 101.934 101.802 101.924 102.512C101.924 106.126 97.8612 108.757 96.1792 109.698C96.6012 109.933 97.0032 110.14 97.0032 110.14C97.0032 110.14 103.571 107.029 103.566 102.517C103.566 100.71 102.092 99.2507 100.282 99.2507Z" fill="#C44F00"/>
<path d="M98.312 114.441C98.312 112.784 95.688 112.784 95.688 114.441V115.688C95.688 117.349 98.317 117.349 98.317 115.688L98.312 114.441ZM103.566 111.697C103.566 110.036 100.936 110.036 100.936 111.697V112.945C100.936 114.606 103.566 114.606 103.566 112.945V111.697ZM93.064 111.697C93.064 110.036 90.4346 110.036 90.4346 111.697V112.945C90.4346 114.606 93.064 114.606 93.064 112.945V111.697Z" fill="#FFCA28"/>
<path d="M104.875 145.316V154.03L106.19 153.202V145.316H104.875ZM109.469 151.127L108.814 151.541L112.753 154.035V153.202L109.469 151.127Z" fill="#C44F00"/>
</g>
<defs>
<filter id="filter0_d_1420_50" x="-8" y="-7" width="203" height="210.565" filterUnits="userSpaceOnUse" color-interpolation-filters="sRGB">
<feFlood flood-opacity="0" result="BackgroundImageFix"/>
<feColorMatrix in="SourceAlpha" type="matrix" values="0 0 0 0 0 0 0 0 0 0 0 0 0 0 0 0 0 0 127 0" result="hardAlpha"/>
<feOffset dx="1" dy="2"/>
<feGaussianBlur stdDeviation="4.5"/>
<feComposite in2="hardAlpha" operator="out"/>
<feColorMatrix type="matrix" values="0 0 0 0 0 0 0 0 0 0 0 0 0 0 0 0 0 0 0.1 0"/>
<feBlend mode="normal" in2="BackgroundImageFix" result="effect1_dropShadow_1420_50"/>
<feBlend mode="normal" in="SourceGraphic" in2="effect1_dropShadow_1420_50" result="shape"/>
</filter>
<linearGradient id="paint0_linear_1420_50" x1="92.5" y1="0" x2="92.5" y2="192.565" gradientUnits="userSpaceOnUse">
<stop stop-color="#FDFF8D"/>
<stop offset="1" stop-color="#FFD2D9"/>
</linearGradient>
<clipPath id="clip0_1420_50">
<rect width="185" height="193" fill="white"/>
</clipPath>
</defs>
</svg>
