<svg width="18" height="19" viewBox="0 0 18 19" fill="none" xmlns="http://www.w3.org/2000/svg">
<path d="M1 18L1.00036 14.8121C1.00056 13.0519 2.42767 11.625 4.18802 11.625H9.50044M11.6256 4.1875C11.6256 5.94791 10.1984 7.375 8.43789 7.375C6.67739 7.375 5.25022 5.94791 5.25022 4.1875C5.25022 2.42709 6.67739 1 8.43789 1C10.1984 1 11.6256 2.42709 11.6256 4.1875Z" stroke="#FF2626" stroke-width="2" stroke-linecap="round" stroke-linejoin="round"/>
<path d="M13.674 13.876V12.274H14.439C14.799 12.274 15.063 12.181 15.231 11.995C15.405 11.803 15.492 11.569 15.492 11.293C15.492 11.095 15.453 10.924 15.375 10.78C15.297 10.63 15.183 10.516 15.033 10.438C14.883 10.36 14.709 10.321 14.511 10.321C14.295 10.321 14.109 10.366 13.953 10.456C13.803 10.546 13.686 10.666 13.602 10.816C13.518 10.966 13.476 11.14 13.476 11.338H12.279C12.279 10.954 12.366 10.603 12.54 10.285C12.714 9.967 12.969 9.715 13.305 9.529C13.641 9.337 14.052 9.241 14.538 9.241C14.982 9.241 15.363 9.328 15.681 9.502C16.005 9.67 16.254 9.901 16.428 10.195C16.602 10.489 16.689 10.822 16.689 11.194V11.302C16.689 11.668 16.602 11.995 16.428 12.283C16.254 12.571 15.996 12.799 15.654 12.967C15.318 13.129 14.907 13.216 14.421 13.228L14.934 12.76L14.916 13.876H13.674ZM13.575 16V14.668H15.015V16H13.575Z" fill="#FF2626"/>
</svg>
