<svg width="22" height="22" viewBox="0 0 22 22" fill="none" xmlns="http://www.w3.org/2000/svg">
<g clip-path="url(#clip0_1427_101)">
<path d="M11 22C17.0751 22 22 17.0751 22 11C22 4.92487 17.0751 0 11 0C4.92487 0 0 4.92487 0 11C0 17.0751 4.92487 22 11 22Z" fill="#6BCA56"/>
<path d="M8.1999 7.57001V8.07001C8.37774 8.07001 8.54219 7.97556 8.63179 7.82195L8.1999 7.57001ZM9.1799 5.89001V5.39001C9.00207 5.39001 8.83762 5.48447 8.74801 5.63808L9.1799 5.89001ZM12.8199 5.89001L13.2518 5.63808C13.1622 5.48447 12.9977 5.39001 12.8199 5.39001V5.89001ZM13.7999 7.57001L13.368 7.82195C13.4576 7.97556 13.6221 8.07001 13.7999 8.07001V7.57001ZM5.3999 14.71H5.8999V8.97001H5.3999H4.8999V14.71H5.3999ZM6.7999 7.57001V8.07001H8.1999V7.57001V7.07001H6.7999V7.57001ZM8.1999 7.57001L8.63179 7.82195L9.61179 6.14195L9.1799 5.89001L8.74801 5.63808L7.76801 7.31808L8.1999 7.57001ZM9.1799 5.89001V6.39001H12.8199V5.89001V5.39001H9.1799V5.89001ZM12.8199 5.89001L12.388 6.14195L13.368 7.82195L13.7999 7.57001L14.2318 7.31808L13.2518 5.63808L12.8199 5.89001ZM13.7999 7.57001V8.07001H15.1999V7.57001V7.07001H13.7999V7.57001ZM16.5999 8.97001H16.0999V14.71H16.5999H17.0999V8.97001H16.5999ZM16.5999 14.71H16.0999C16.0999 15.2071 15.697 15.61 15.1999 15.61V16.11V16.61C16.2492 16.61 17.0999 15.7594 17.0999 14.71H16.5999ZM15.1999 7.57001V8.07001C15.697 8.07001 16.0999 8.47296 16.0999 8.97001H16.5999H17.0999C17.0999 7.92067 16.2492 7.07001 15.1999 7.07001V7.57001ZM5.3999 8.97001H5.8999C5.8999 8.47296 6.30285 8.07001 6.7999 8.07001V7.57001V7.07001C5.75056 7.07001 4.8999 7.92067 4.8999 8.97001H5.3999ZM6.7999 16.11V15.61C6.30285 15.61 5.8999 15.2071 5.8999 14.71H5.3999H4.8999C4.8999 15.7594 5.75056 16.61 6.7999 16.61V16.11ZM13.0999 11.49H12.5999C12.5999 12.3737 11.8836 13.09 10.9999 13.09V13.59V14.09C12.4358 14.09 13.5999 12.926 13.5999 11.49H13.0999ZM10.9999 13.59V13.09C10.1162 13.09 9.3999 12.3737 9.3999 11.49H8.8999H8.3999C8.3999 12.926 9.56396 14.09 10.9999 14.09V13.59ZM8.8999 11.49H9.3999C9.3999 10.6064 10.1162 9.89001 10.9999 9.89001V9.39001V8.89001C9.56396 8.89001 8.3999 10.0541 8.3999 11.49H8.8999ZM10.9999 9.39001V9.89001C11.8836 9.89001 12.5999 10.6064 12.5999 11.49H13.0999H13.5999C13.5999 10.0541 12.4358 8.89001 10.9999 8.89001V9.39001ZM15.1999 16.11V15.61H6.7999V16.11V16.61H15.1999V16.11Z" fill="white"/>
</g>
<defs>
<clipPath id="clip0_1427_101">
<rect width="22" height="22" fill="white"/>
</clipPath>
</defs>
</svg>
