<svg width="48" height="48" viewBox="0 0 48 48" fill="none" xmlns="http://www.w3.org/2000/svg">
<path d="M26.7891 10.941C25.8734 10.842 24.9431 10.7852 24 10.7711C19.879 10.7894 15.6071 11.7918 11.5635 13.7126C8.56116 15.1974 5.63656 17.2937 3.09668 19.8795C1.84928 21.1995 0.25724 23.1108 0 25.15C0.0304 26.9165 1.92612 29.0968 3.09668 30.4206C5.4784 32.9048 8.32684 34.9411 11.5635 36.5875C11.6735 36.6409 11.7839 36.6937 11.8945 36.7457L8.89164 41.9898L12.9718 44.4012L35.0285 5.99993L31.101 3.59961L26.7891 10.941ZM36.1025 13.5602L33.1054 18.7545C34.4842 20.5458 35.3027 22.7547 35.3027 25.15C35.3027 31.1203 30.2418 35.9606 23.997 35.9606C23.7271 35.9606 23.4654 35.9314 23.2002 35.9137L21.2168 39.3473C22.1315 39.4452 23.0564 39.5166 24 39.5289C28.1249 39.5104 32.3944 38.4964 36.4336 36.5875C39.4359 35.1026 42.3634 33.0064 44.9033 30.4206C46.1507 29.1006 47.7427 27.1893 48 25.15C47.9696 23.3836 46.0738 21.2032 44.9033 19.8795C42.5216 17.3952 39.6702 15.359 36.4336 13.7125C36.3243 13.6595 36.2125 13.6119 36.1025 13.5602ZM23.9971 14.3395C24.2709 14.3395 24.5426 14.3505 24.8115 14.3688L22.4883 18.3912C19.2277 19.0523 16.7812 21.8265 16.7812 25.1471C16.7812 25.9813 16.9349 26.7799 17.2178 27.5201C17.2181 27.521 17.2174 27.5223 17.2178 27.5231L14.8886 31.5573C13.5066 29.7643 12.6914 27.5481 12.6914 25.15C12.6914 19.1798 17.7523 14.3395 23.9971 14.3395ZM30.7558 22.8209L25.5205 31.8912C28.7636 31.2178 31.1924 28.4563 31.1924 25.1471C31.1924 24.3282 31.029 23.5496 30.7558 22.8209Z" fill="#1E1E1E"/>
</svg>
