<svg width="48" height="48" viewBox="0 0 48 48" fill="none" xmlns="http://www.w3.org/2000/svg">
<path d="M31.1937 23.9973C31.1937 27.8105 27.9672 30.9017 23.987 30.9017C20.0068 30.9017 16.7802 27.8105 16.7802 23.9973C16.7802 20.184 20.0068 17.0928 23.987 17.0928C27.9672 17.0927 31.1937 20.184 31.1937 23.9973ZM24 9.62109C19.879 9.63937 15.6074 10.6426 11.5638 12.5634C8.56152 14.0483 5.6356 16.1432 3.09576 18.729C1.84832 20.049 0.25724 21.9603 0 23.9995C0.0304 25.7659 1.9252 27.9463 3.09576 29.27C5.47748 31.7543 8.3272 33.7907 11.5638 35.4372C15.3347 37.2672 19.5085 38.3209 24 38.3795C28.1249 38.3609 32.3955 37.3461 36.4346 35.4372C39.437 33.9523 42.3644 31.8558 44.9042 29.27C46.1516 27.9501 47.7427 26.0387 48 23.9995C47.9696 22.2331 46.0748 20.0527 44.9042 18.7289C42.5225 16.2447 39.6713 14.2098 36.4346 12.5633C32.6658 10.7347 28.4817 9.68825 24 9.62109ZM23.997 13.191C30.2417 13.191 35.304 18.0308 35.304 24.0011C35.304 29.9713 30.2417 34.8111 23.997 34.8111C17.7522 34.8111 12.69 29.9713 12.69 24.0011C12.69 18.0308 17.7522 13.191 23.997 13.191Z" fill="#1E1E1E"/>
</svg>
