<svg width="93" height="179" viewBox="0 0 93 179" fill="none" xmlns="http://www.w3.org/2000/svg">
<path d="M14.6222 105.394C17.8323 105.394 20.4161 107.717 20.4161 110.588C20.4161 113.458 17.8062 115.781 14.6222 115.781C11.4121 115.781 8.82832 113.458 8.82832 110.588C8.80222 107.717 11.4121 105.394 14.6222 105.394Z" fill="#28999B" stroke="#A9ABAE" stroke-width="0.1724" stroke-miterlimit="2.6131"/>
<path fill-rule="evenodd" clip-rule="evenodd" d="M66.2682 55.6502L63.4495 59.2779C55.2383 60.3745 47.8743 51.928 44.5223 48.0833C44.4438 47.9932 44.3674 47.9056 44.2932 47.8207C36.8381 39.3281 37.3454 38.575 42.042 31.6024C42.4258 31.0325 42.8377 30.4211 43.2754 29.7605C43.3494 29.8716 43.4103 30.0088 43.4581 30.1165C43.4777 30.1607 43.4951 30.1999 43.5103 30.2303L43.9279 31.196C43.9873 31.36 44.032 31.4893 44.0685 31.5888C44.0499 31.5613 44.0779 31.6836 44.241 32.2138C46.5983 39.7673 53.561 45.1087 59.2585 49.4796C62.2031 51.7386 64.8098 53.7384 66.2682 55.6502ZM44.0759 31.6022C44.1005 31.6524 44.155 31.8006 44.1761 31.8621C44.1971 31.9236 44.1848 31.8984 44.0759 31.6022ZM69.0095 57.6508C68.4404 57.1975 67.9288 56.79 67.4948 56.4332C66.4058 57.8528 65.6102 59.1818 64.8422 60.4648C63.5487 62.6256 62.3334 64.6558 59.9262 66.7682C54.9936 71.1789 51.653 68.9083 47.6078 65.9853C41.7617 61.7573 32.2096 52.7011 33.0448 45.0543C33.502 40.8376 36.8766 36.2996 38.9334 33.5336C38.9898 33.4577 39.0453 33.3831 39.0996 33.3099C49.8581 18.7675 49.6216 18.5818 47.0854 16.5898C46.0531 15.779 44.6399 14.669 43.432 12.1702C41.6834 8.54247 45.807 2.64421 48.0514 1L48.1636 1.16634C49.6221 3.3302 49.7364 3.49979 51.3659 5.35845C56.7129 11.4345 54.3457 14.1223 51.997 16.7891C51.067 17.8451 50.1398 18.8978 49.6956 20.1563C47.587 26.0687 63.2288 38.6621 72.9756 46.5093C75.5337 48.5689 77.6858 50.3015 79.0042 51.5006C79.2791 51.7513 79.5704 52.0129 79.8739 52.2856C84.1527 56.1298 90.8731 62.1676 88.5824 70.5264C86.7816 77.1815 80.7267 85.4547 75.2983 88.0907C68.6375 91.2985 60.2464 88.5168 53.371 86.2375C52.1915 85.8465 51.0566 85.4702 49.9827 85.1416L49.7946 85.0839C35.7028 80.7616 9.02071 72.5776 6.00675 93.5714C7.65048 92.8877 9.02615 92.2594 10.2484 91.7012C15.8376 89.1487 18.2175 88.0618 28.3471 89.8393C33.337 90.704 38.1652 92.1406 43.012 93.5828C45.1872 94.23 47.3662 94.8783 49.5651 95.4766L49.9804 95.5905C57.3661 97.6173 64.9633 99.7021 73.3148 99.574C83.7189 99.4082 87.0459 96.4774 90.0399 93.8399C90.8161 93.1562 91.5699 92.4921 92.4189 91.9011C90.6703 104.663 82.8146 116.825 75.5592 122.306C65.4997 129.897 55.5375 127.613 44.8162 125.154C41.9357 124.494 39.0005 123.821 35.9939 123.324C37.2929 125.804 39.5625 128.523 41.7734 131.173C42.9828 132.622 44.1747 134.051 45.1806 135.407C45.4005 135.704 45.6232 136.002 45.8479 136.304C50.61 142.692 56.2158 150.211 52.8014 158.635C52.3647 159.712 51.9463 160.45 51.6232 161.02C50.7874 162.495 50.5885 162.846 52.3577 165.029C56.2464 169.883 52.6709 175.103 49.3564 178C48.7002 177.277 48.1745 176.478 47.6525 175.685C47.1572 174.932 46.6652 174.185 46.0679 173.511C41.3963 168.291 40.9004 167.691 47.6339 158.478C45.8631 152.691 39.2679 144.509 34.7232 138.871C33.7754 137.695 32.9167 136.63 32.2096 135.72C25.163 126.69 21.1439 121.157 30.5132 111.371C31.9525 110.708 36.2187 111.827 41.8115 113.294C57.8205 117.492 84.6983 124.539 87.2514 100.827C85.5004 101.82 84.1725 102.873 82.897 103.885C79.6478 106.462 76.7389 108.77 68.0429 109.126C58.8792 109.509 48.4643 106.543 38.2184 103.626C33.0862 102.164 27.9963 100.715 23.1274 99.7045C12.1921 97.4339 8.6166 97.8776 1.02194 102.367C0.552165 97.7993 7.75535 83.6539 10.3391 80.2611C22.2879 64.5501 39.8859 70.3158 55.5023 75.4324C66.9686 79.1892 77.3666 82.596 83.6759 76.8944C83.4884 69.1839 74.0198 61.6418 69.0095 57.6508Z" fill="#2D5DA1"/>
<path d="M43.9279 31.196L43.5103 30.2303C43.4951 30.1999 43.4777 30.1607 43.4581 30.1165C43.4103 30.0088 43.3494 29.8716 43.2754 29.7605C42.8377 30.4211 42.4258 31.0325 42.042 31.6024C37.3454 38.575 36.8381 39.3281 44.2932 47.8207C44.3674 47.9056 44.4438 47.9932 44.5223 48.0833C47.8743 51.928 55.2383 60.3745 63.4495 59.2779L66.2682 55.6502C64.8098 53.7384 62.2031 51.7386 59.2585 49.4796C53.561 45.1087 46.5983 39.7673 44.241 32.2138C44.0779 31.6836 44.0499 31.5613 44.0685 31.5888M43.9279 31.196C43.9873 31.36 44.032 31.4893 44.0685 31.5888M43.9279 31.196C44.1725 31.8711 44.2043 31.9446 44.1761 31.8621M49.5651 95.4766C47.3662 94.8783 45.1872 94.23 43.012 93.5828C38.1652 92.1406 33.337 90.704 28.3471 89.8393C18.2175 88.0618 15.8376 89.1487 10.2484 91.7012C9.02615 92.2594 7.65048 92.8877 6.00675 93.5714C9.02071 72.5776 35.7028 80.7616 49.7946 85.0839M49.5651 95.4766L49.9804 95.5905M49.5651 95.4766C49.7035 95.5145 49.8419 95.5525 49.9804 95.5905M49.9827 85.1416C51.0566 85.4702 52.1915 85.8465 53.371 86.2375C60.2464 88.5168 68.6375 91.2985 75.2983 88.0907C80.7267 85.4547 86.7816 77.1815 88.5824 70.5264C90.8731 62.1676 84.1527 56.1298 79.8739 52.2856C79.5704 52.0129 79.2791 51.7513 79.0042 51.5006C77.6858 50.3015 75.5337 48.5689 72.9756 46.5093C63.2288 38.6621 47.587 26.0687 49.6956 20.1563C50.1398 18.8978 51.067 17.8451 51.997 16.7891C54.3457 14.1223 56.7129 11.4345 51.3659 5.35845C49.7364 3.49979 49.6221 3.3302 48.1636 1.16634M49.9827 85.1416L49.7946 85.0839M49.9827 85.1416C49.9203 85.1224 49.8576 85.1032 49.7946 85.0839M48.0514 1C45.807 2.64421 41.6834 8.54247 43.432 12.1702C44.6399 14.669 46.0531 15.779 47.0854 16.5898C49.6216 18.5818 49.8581 18.7675 39.0996 33.3099C39.0453 33.3831 38.9898 33.4577 38.9334 33.5336C36.8766 36.2996 33.502 40.8376 33.0448 45.0543C32.2096 52.7011 41.7617 61.7573 47.6078 65.9853C51.653 68.9083 54.9936 71.1789 59.9262 66.7682C62.3334 64.6558 63.5487 62.6256 64.8422 60.4648C65.6102 59.1818 66.4058 57.8528 67.4948 56.4332C67.9288 56.79 68.4404 57.1975 69.0095 57.6508C74.0198 61.6418 83.4884 69.1839 83.6759 76.8944C77.3666 82.596 66.9686 79.1892 55.5023 75.4324C39.8859 70.3158 22.2879 64.5501 10.3391 80.2611C7.75535 83.6539 0.552165 97.7993 1.02194 102.367C8.6166 97.8776 12.1921 97.4339 23.1274 99.7045C27.9963 100.715 33.0862 102.164 38.2184 103.626C48.4643 106.543 58.8792 109.509 68.0429 109.126C76.7389 108.77 79.6478 106.462 82.897 103.885C84.1725 102.873 85.5004 101.82 87.2514 100.827C84.6983 124.539 57.8205 117.492 41.8115 113.294C36.2187 111.827 31.9525 110.708 30.5132 111.371C21.1439 121.157 25.163 126.69 32.2096 135.72C32.9167 136.63 33.7754 137.695 34.7232 138.871C39.2679 144.509 45.8631 152.691 47.6339 158.478C40.9004 167.691 41.3963 168.291 46.0679 173.511C46.6652 174.185 47.1572 174.932 47.6525 175.685C48.1745 176.478 48.7002 177.277 49.3564 178C52.6709 175.103 56.2464 169.883 52.3577 165.029C50.5885 162.846 50.7874 162.495 51.6232 161.02C51.9463 160.45 52.3647 159.712 52.8014 158.635C56.2158 150.211 50.61 142.692 45.8479 136.304C45.6232 136.002 45.4005 135.704 45.1806 135.407C44.1747 134.051 42.9828 132.622 41.7734 131.173C39.5625 128.523 37.2929 125.804 35.9939 123.324C39.0005 123.821 41.9357 124.494 44.8162 125.154C55.5375 127.613 65.4997 129.897 75.5592 122.306C82.8146 116.825 90.6703 104.663 92.4189 91.9011C91.5699 92.4921 90.8161 93.1562 90.0399 93.8399C87.0459 96.4774 83.7189 99.4082 73.3148 99.574C64.9633 99.7021 57.3661 97.6173 49.9804 95.5905M48.0514 1L48.1636 1.16634M48.0514 1C48.0897 1.05673 48.127 1.11216 48.1636 1.16634M44.0759 31.6022C44.073 31.5962 44.0705 31.5917 44.0685 31.5888M44.0759 31.6022C44.1005 31.6524 44.155 31.8006 44.1761 31.8621M44.0759 31.6022C44.1848 31.8984 44.1971 31.9236 44.1761 31.8621" stroke="#A9ABAE" stroke-width="0.1685" stroke-miterlimit="2.6131"/>
</svg>
