<svg width="22" height="18" viewBox="0 0 22 18" fill="none" xmlns="http://www.w3.org/2000/svg">
<path d="M17.4567 17.0212C18.009 17.0212 18.4567 16.5734 18.4567 16.0212C18.4567 15.4689 18.009 15.0212 17.4567 15.0212V17.0212ZM3.74279 15.0212C3.19051 15.0212 2.74279 15.4689 2.74279 16.0212C2.74279 16.5734 3.19051 17.0212 3.74279 17.0212V15.0212ZM1 10.6629C0.447715 10.6629 0 11.1106 0 11.6629C0 12.2152 0.447715 12.6629 1 12.6629V10.6629ZM20.1995 12.6629C20.7518 12.6629 21.1995 12.2152 21.1995 11.6629C21.1995 11.1106 20.7518 10.6629 20.1995 10.6629V12.6629ZM2.83992 8.75431C3.29747 9.06361 3.91912 8.94342 4.22842 8.48586C4.53771 8.02831 4.41752 7.40666 3.95997 7.09736L2.83992 8.75431ZM1.90287 5.70682C1.44532 5.39753 0.823667 5.51772 0.514374 5.97527C0.20508 6.43283 0.325269 7.05448 0.782823 7.36377L1.90287 5.70682ZM6.70101 4.10562C6.94308 4.60203 7.54173 4.80821 8.03814 4.56614C8.53455 4.32408 8.74073 3.72542 8.49867 3.22901L6.70101 4.10562ZM7.40287 0.981869C7.1608 0.485461 6.56215 0.279278 6.06574 0.521346C5.56933 0.763415 5.36315 1.36207 5.60522 1.85848L7.40287 0.981869ZM12.3872 2.95635C12.0838 3.41782 12.2119 4.03789 12.6734 4.3413C13.1349 4.64471 13.7549 4.51658 14.0583 4.05511L12.3872 2.95635ZM15.4297 1.9693C15.7332 1.50783 15.605 0.887763 15.1436 0.584349C14.6821 0.280935 14.062 0.409068 13.7586 0.870542L15.4297 1.9693ZM20.4071 7.42924C20.9008 7.18172 21.1004 6.58083 20.8529 6.08712C20.6054 5.59341 20.0045 5.39383 19.5108 5.64135L20.4071 7.42924ZM17.2946 6.75245C16.8009 6.99997 16.6013 7.60086 16.8488 8.09457C17.0963 8.58828 17.6972 8.78786 18.1909 8.54034L17.2946 6.75245ZM17.4567 16.0212V15.0212H3.74279V16.0212V17.0212H17.4567V16.0212ZM1 11.6629V12.6629H20.1995V11.6629V10.6629H1V11.6629ZM5.79988 11.6629H6.79988C6.79988 9.51417 8.51417 7.79603 10.5998 7.79603V6.79603V5.79603C7.38356 5.79603 4.79988 8.43583 4.79988 11.6629H5.79988ZM10.5998 6.79603V7.79603C12.6854 7.79603 14.3996 9.51417 14.3996 11.6629H15.3996H16.3996C16.3996 8.43583 13.816 5.79603 10.5998 5.79603V6.79603ZM3.39994 7.92584L3.95997 7.09736L1.90287 5.70682L1.34285 6.5353L0.782823 7.36377L2.83992 8.75431L3.39994 7.92584ZM7.59984 3.66732L8.49867 3.22901L7.40287 0.981869L6.50404 1.42017L5.60522 1.85848L6.70101 4.10562L7.59984 3.66732ZM13.2228 3.50573L14.0583 4.05511L15.4297 1.9693L14.5942 1.41992L13.7586 0.870542L12.3872 2.95635L13.2228 3.50573ZM19.959 6.5353L19.5108 5.64135L17.2946 6.75245L17.7427 7.64639L18.1909 8.54034L20.4071 7.42924L19.959 6.5353Z" fill="#4CE047"/>
</svg>
