<svg width="24" height="21" viewBox="0 0 24 21" fill="none" xmlns="http://www.w3.org/2000/svg">
<path d="M23.5062 11.09C23.5062 10.967 23.4387 10.8605 23.3392 10.8023C23.7469 10.4304 24 10.0002 24 9.38615C24 7.5763 21.7787 7.21985 21.7787 6.38735C21.7787 7.21985 19.5573 7.5763 19.5573 9.38615C19.5573 10.0001 19.8103 10.4303 20.2181 10.8023C20.1186 10.8604 20.0511 10.9668 20.0511 11.09C20.0511 11.2687 20.1921 11.4132 20.3696 11.4228V13.211C20.1921 13.2205 20.0511 13.3651 20.0511 13.5438C20.0511 13.7225 20.1921 13.8672 20.3696 13.8767V14.8104H16.2054V13.4486H15.7275V12.5109H15.6879C16.5304 11.6961 17.0465 10.7489 17.0465 9.42667C17.0465 5.69442 12.889 4.68226 12.1213 3.11314C12.2562 3.14645 12.3951 3.16447 12.5352 3.16447C13.0585 3.16447 13.5472 2.93306 13.8761 2.52957C13.9904 2.38895 14.0816 2.23235 14.1469 2.06401L14.1571 2.03785L14.1333 2.05314C13.8567 2.23117 13.5355 2.32532 13.2043 2.32532C12.8158 2.32532 12.4351 2.19128 12.1322 1.94793C11.5567 1.48505 11.3475 0.712758 11.6119 0.0260992L11.6219 0L11.5983 0.0152245C11.4463 0.113221 11.311 0.234334 11.1963 0.375145C10.9066 0.730592 10.7735 1.17676 10.8217 1.63157C10.8699 2.08639 11.0937 2.49534 11.4516 2.78305C11.5901 2.89434 11.7453 2.98177 11.9095 3.04547C11.2307 4.65387 6.95346 5.64104 6.95346 9.42661C6.95346 10.7488 7.46938 11.696 8.31196 12.5109H8.27235V13.4485H7.79453V14.8103H3.6302V13.8725C3.80789 13.863 3.94929 13.7183 3.94929 13.5397C3.94929 13.3611 3.80789 13.2164 3.6302 13.207V11.4186C3.80789 11.4091 3.94929 11.2645 3.94929 11.0858C3.94929 10.9629 3.88159 10.8565 3.78193 10.7984C4.18948 10.4265 4.44269 9.99632 4.44269 9.3823C4.44269 7.57244 2.22109 7.21575 2.22109 6.38319C2.22109 7.21569 0 7.57244 0 9.3823C0 9.99638 0.253205 10.4266 0.660885 10.7984C0.56128 10.8565 0.493708 10.9629 0.493708 11.0858C0.493708 11.2644 0.634982 11.409 0.812419 11.4186V13.207C0.634982 13.2165 0.493708 13.3611 0.493708 13.5397C0.493708 13.7183 0.634982 13.8629 0.812419 13.8725V14.8103H0.81048V21H3.57759V18.6137C3.57759 17.6231 5.00659 16.9741 5.00659 16.9741C5.00659 16.9741 6.43548 17.623 6.43548 18.6137V21H9.99623V17.5933C9.99623 16.2043 12 15.2944 12 15.2944C12 15.2944 14.0037 16.2044 14.0037 17.5933V21H17.5645V18.6137C17.5645 17.6231 18.9933 16.9741 18.9933 16.9741C18.9933 16.9741 20.4224 17.623 20.4224 18.6137V21H23.1895V14.8104H23.1876V13.8767C23.3651 13.8673 23.5062 13.7225 23.5062 13.5438C23.5062 13.3651 23.3651 13.2204 23.1876 13.211V11.4228C23.365 11.4133 23.5062 11.2687 23.5062 11.09Z" fill="#42D0D3"/>
</svg>
