<svg width="27" height="27" viewBox="0 0 27 27" fill="none" xmlns="http://www.w3.org/2000/svg">
<path d="M5.60323 14.7083C1.83745 10.4792 8.26125 8.36458 9.875 6.25C11.4889 8.36458 17.9128 10.4792 14.147 14.7083H5.60323Z" stroke="white" stroke-width="1.5" stroke-linecap="round" stroke-linejoin="round"/>
<path d="M20.4636 7.45834C17.9755 4.4375 21.194 2.92709 22.2603 1.41667C23.3266 2.92709 26.545 4.4375 24.0569 7.45834H20.4636Z" stroke="white" stroke-width="1.5" stroke-linecap="round" stroke-linejoin="round"/>
<path d="M11.0832 3.4187C10.827 3.67489 10.4731 3.83334 10.0822 3.83334C9.30031 3.83334 8.6665 3.19953 8.6665 2.41769C8.6665 2.02677 8.82496 1.67285 9.08114 1.41667" stroke="white" stroke-width="1.5" stroke-linecap="round"/>
<path d="M9.875 3.83333V5.04166V6.24999" stroke="white" stroke-width="1.5" stroke-linecap="round" stroke-linejoin="round"/>
<path d="M19.5415 19.5417V25.5833H4.00579C2.78519 25.5833 2.17489 25.5833 1.7957 25.2294C1.4165 24.8755 1.4165 24.3059 1.4165 23.1667V19.5417C1.4165 17.2632 1.4165 16.124 2.17489 15.4162C2.93327 14.7083 4.15387 14.7083 6.59507 14.7083H14.3629C16.8041 14.7083 18.0247 14.7083 18.7831 15.4162C19.5415 16.124 19.5415 17.2632 19.5415 19.5417Z" stroke="white" stroke-width="1.5" stroke-linecap="round" stroke-linejoin="round"/>
<path d="M17.125 25.5833H20.372C22.9707 25.5833 24.27 25.5833 25.0194 24.7883C25.7688 23.9932 25.6395 22.7518 25.3809 20.2691L24.0467 7.45833H20.2712L19.0966 15.3125" stroke="white" stroke-width="1.5" stroke-linecap="round" stroke-linejoin="round"/>
<path d="M7.4586 25.5833V23.1667C7.4377 19.5417 10.4793 18.3333 10.4793 18.3333C10.4793 18.3333 13.521 19.5417 13.5001 23.1667V25.5833" stroke="white" stroke-width="1.5" stroke-linecap="round" stroke-linejoin="round"/>
</svg>
