<svg width="24" height="24" viewBox="0 0 24 24" fill="none" xmlns="http://www.w3.org/2000/svg">
<path d="M15.7106 3.7198C15.7106 4.67529 14.9367 5.44986 13.982 5.44986C13.0273 5.44986 12.2534 4.67529 12.2534 3.7198C12.2534 2.76432 13.0273 1.98975 13.982 1.98975C14.9367 1.98975 15.7106 2.76432 15.7106 3.7198Z" stroke="#A2A2A2" stroke-width="1.5"/>
<path d="M11.2826 5.54829C11.2826 6.50378 10.5087 7.27835 9.55397 7.27835C8.59927 7.27835 7.82534 6.50378 7.82534 5.54829C7.82534 4.59281 8.59927 3.81824 9.55397 3.81824C10.5087 3.81824 11.2826 4.59281 11.2826 5.54829Z" stroke="#A2A2A2" stroke-width="1.5"/>
<path d="M9.45139 9.99995C9.45139 10.9554 8.67746 11.73 7.72276 11.73C6.76807 11.73 5.99414 10.9554 5.99414 9.99995C5.99414 9.04447 6.76807 8.2699 7.72276 8.2699C8.67746 8.2699 9.45139 9.04447 9.45139 9.99995Z" stroke="#A2A2A2" stroke-width="1.5"/>
<path d="M11.2645 14.4367C11.2645 15.3922 10.4905 16.1668 9.53585 16.1668C8.58115 16.1668 7.80722 15.3922 7.80722 14.4367C7.80722 13.4812 8.58115 12.7067 9.53585 12.7067C10.4905 12.7067 11.2645 13.4812 11.2645 14.4367Z" stroke="#A2A2A2" stroke-width="1.5"/>
<path d="M15.7145 16.2839C15.7145 17.2394 14.9406 18.0139 13.9859 18.0139C13.0312 18.0139 12.2573 17.2394 12.2573 16.2839C12.2573 15.3284 13.0312 14.5538 13.9859 14.5538C14.9406 14.5538 15.7145 15.3284 15.7145 16.2839Z" stroke="#A2A2A2" stroke-width="1.5"/>
<path d="M20.165 14.4367C20.165 15.3922 19.391 16.1668 18.4363 16.1668C17.4816 16.1668 16.7077 15.3922 16.7077 14.4367C16.7077 13.4812 17.4816 12.7067 18.4363 12.7067C19.391 12.7067 20.165 13.4812 20.165 14.4367Z" stroke="#A2A2A2" stroke-width="1.5"/>
<path d="M22.0023 9.99995C22.0023 10.9554 21.2283 11.73 20.2737 11.73C19.319 11.73 18.545 10.9554 18.545 9.99995C18.545 9.04447 19.319 8.2699 20.2737 8.2699C21.2283 8.2699 22.0023 9.04447 22.0023 9.99995Z" stroke="#A2A2A2" stroke-width="1.5"/>
<path d="M20.165 5.56279C20.165 6.51827 19.391 7.29285 18.4363 7.29285C17.4816 7.29285 16.7077 6.51827 16.7077 5.56279C16.7077 4.60731 17.4816 3.83273 18.4363 3.83273C19.391 3.83273 20.165 4.60731 20.165 5.56279Z" stroke="#A2A2A2" stroke-width="1.5"/>
<path d="M7.76254 14.8389L2.89079 17.293C2.16424 17.687 1.73007 18.1444 2.20423 18.9906C2.40435 19.3603 2.82611 19.982 3.43377 20.5939M9.15081 16.2255L6.70283 21.0826C6.15329 22.1733 5.62697 22.0463 5.19403 21.8911C4.50399 21.5497 3.91144 21.0748 3.43377 20.5939M3.43377 20.5939L5.10924 18.8845" stroke="#A2A2A2" stroke-width="1.5" stroke-linecap="round" stroke-linejoin="round"/>
</svg>
