<svg width="28" height="28" viewBox="0 0 28 28" fill="none" xmlns="http://www.w3.org/2000/svg">
<path d="M24.4998 19.8333H7.58317C5.97234 19.8333 4.6665 21.1392 4.6665 22.75C4.6665 24.3608 5.97234 25.6667 7.58317 25.6667H24.4998" stroke="currentColor" stroke-width="1.5" stroke-linecap="round"/>
<path d="M24.5002 25.6667C22.8893 25.6667 21.5835 24.3608 21.5835 22.75C21.5835 21.1392 22.8893 19.8333 24.5002 19.8333" stroke="currentColor" stroke-width="1.5" stroke-linecap="round"/>
<path d="M15.95 7.78349L14.5832 6.41666L13.2163 7.78349H11.2833V9.71649L9.9165 11.0833L11.2833 12.4502V14.3832H13.2163L14.5832 15.75L15.95 14.3832H17.883V12.4502L19.2498 11.0833L17.883 9.71649V7.78349H15.95Z" stroke="currentColor" stroke-width="1.5" stroke-linecap="round" stroke-linejoin="round"/>
<path d="M4.6665 22.75V6.41666C4.6665 4.1615 6.49467 2.33333 8.74984 2.33333H20.4165C22.6717 2.33333 24.4998 4.1615 24.4998 6.41666V19.8333" stroke="currentColor" stroke-width="1.5" stroke-linecap="round" stroke-linejoin="round"/>
</svg>
